<?xml version="1.0" encoding="UTF-8"?>
<svg width="48px" height="48px" viewBox="0 0 48 48" version="1.1" xmlns="http://www.w3.org/2000/svg" xmlns:xlink="http://www.w3.org/1999/xlink">
    <title>at_digital services</title>
    <g id="at_digital-services" stroke="none" stroke-width="1" fill="none" fill-rule="evenodd" stroke-linecap="round" stroke-linejoin="round">
        <g id="Group-916" transform="translate(2.000000, 6.000000)" stroke="#002D72" stroke-width="1.5">
            <path d="M9.71558261,1.94444444 C10.1001043,0.77 11.1714087,0 12.4340174,0 L41.1296696,0 C42.7155826,0 43.9992348,1.3825 43.9992348,3.08777778 L43.9992348,26.0788889 C43.9992348,27.7841667 42.7155826,29.1666667 41.1296696,29.1666667 L15.3035826,29.1666667" id="Stroke-8437"></path>
            <line x1="18.173913" y1="33.0555556" x2="35.3913043" y2="33.0555556" id="Stroke-8438"></line>
            <line x1="26.7826087" y1="29.1666667" x2="26.7826087" y2="33.0555556" id="Stroke-8439"></line>
            <line x1="24.8695652" y1="21.3888889" x2="44" y2="21.3888889" id="Stroke-8440"></line>
            <path d="M5.73913043,11.6666667 L5.73913043,7.77777778 C5.73913043,6.70833333 6.6,5.83333333 7.65217391,5.83333333 L19.1304348,5.83333333 C20.1826087,5.83333333 21.0434783,6.70833333 21.0434783,7.77777778 L21.0434783,23.3333333 C21.0434783,24.4027778 20.1826087,25.2777778 19.1304348,25.2777778 L15.3043478,25.2777778" id="Stroke-8441"></path>
            <line x1="15.3043478" y1="21.3888889" x2="21.0434783" y2="21.3888889" id="Stroke-8442"></line>
            <path d="M11.4782609,31.1111111 C11.4782609,32.1805556 10.6173913,33.0555556 9.56521739,33.0555556 L1.91304348,33.0555556 C0.860869565,33.0555556 0,32.1805556 0,31.1111111 L0,17.5 C0,16.4305556 0.860869565,15.5555556 1.91304348,15.5555556 L9.56521739,15.5555556 C10.6173913,15.5555556 11.4782609,16.4305556 11.4782609,17.5 L11.4782609,31.1111111 L11.4782609,31.1111111 Z" id="Stroke-8443"></path>
            <line x1="0" y1="29.1666667" x2="11.4782609" y2="29.1666667" id="Stroke-8444"></line>
            <line x1="0.000956521739" y1="19.4444444" x2="11.4792174" y2="19.4444444" id="Stroke-8445"></line>
            <line x1="5.73817391" y1="9.72416667" x2="21.0425217" y2="9.72416667" id="Stroke-8446"></line>
        </g>
    </g>
</svg>