<svg width="32" height="32" xmlns="http://www.w3.org/2000/svg"><g fill="none" fill-rule="evenodd"><path d="M0 0h32v32H0z"/><path d="M18.435 9.391c0 .768-2.336 1.392-5.218 1.392C10.336 10.783 8 10.159 8 9.39 8 8.623 10.336 8 13.217 8c2.882 0 5.218.623 5.218 1.391h0Z" stroke="#002D72" stroke-linecap="round" stroke-linejoin="round"/><path d="M18.435 9.391v2.087c0 .768-2.336 1.392-5.218 1.392-2.881 0-5.217-.624-5.217-1.392V9.391" stroke="#002D72" stroke-linecap="round" stroke-linejoin="round"/><path d="M18.435 11.478v2.087c0 .768-2.336 1.392-5.218 1.392-2.881 0-5.217-.624-5.217-1.392v-2.087M24 18.435c0 .768-2.335 1.391-5.217 1.391-2.882 0-5.218-.623-5.218-1.391s2.336-1.392 5.218-1.392S24 17.667 24 18.435h0Z" stroke="#002D72" stroke-linecap="round" stroke-linejoin="round"/><path d="M24 18.435v2.087c0 .768-2.335 1.391-5.217 1.391-2.882 0-5.218-.623-5.218-1.391v-2.087" stroke="#002D72" stroke-linecap="round" stroke-linejoin="round"/><path d="M24 20.522v2.087C24 23.377 21.665 24 18.783 24c-2.882 0-5.218-.623-5.218-1.391v-2.087M18.435 13.565v2.087c0 .768-2.336 1.391-5.218 1.391-2.881 0-5.217-.623-5.217-1.39v-2.088" stroke="#002D72" stroke-linecap="round" stroke-linejoin="round"/><path d="M8 15.652v2.087c0 .768 2.336 1.391 5.217 1.391h.348" stroke="#002D72" stroke-linecap="round" stroke-linejoin="round"/><path d="M8 17.74v2.086c0 .768 2.336 1.391 5.217 1.391h.348M18.435 15.652v1.391" stroke="#002D72" stroke-linecap="round" stroke-linejoin="round"/></g></svg>