<svg width="32" height="32" xmlns="http://www.w3.org/2000/svg"><g transform="translate(8.000000, 8.000000)"><path fill="#002D72" d="M5.065 0a.5.5 0 0 1 .5.5v.805h4.87V.5a.5.5 0 0 1 .5-.5h1.955a.5.5 0 0 1 .5.5v.805h2.11a.5.5 0 0 1 .5.5V15.5a.5.5 0 0 1-.5.5H.5a.5.5 0 0 1-.5-.5V1.805a.5.5 0 0 1 .5-.5h2.11V.5a.5.5 0 0 1 .5-.5ZM15 5.565H1V15h14V5.565ZM2.61 2.305H1v2.26h14v-2.26h-1.61v.805a.5.5 0 0 1-.5.5h-1.955a.5.5 0 0 1-.5-.5v-.805h-4.87v.805a.5.5 0 0 1-.5.5H3.11a.5.5 0 0 1-.5-.5v-.805ZM12.39 1h-.955v1.61h.955V1ZM4.565 1H3.61v1.61h.955V1Zm6.37 4.87a.5.5 0 0 1 .5.5v.805h2.76a.5.5 0 1 1 0 1h-2.76v1.61h2.76a.5.5 0 1 1 0 1h-2.76v1.605h2.76a.5.5 0 1 1 0 1h-2.76v.805a.5.5 0 1 1-1 0v-.805h-2.26v.805a.5.5 0 1 1-1 0v-.805h-2.26v.81a.5.5 0 1 1-1 0v-.805h-2.11a.5.5 0 1 1 0-1h2.11v-1.61h-2.11a.5.5 0 1 1 0-1h2.11v-1.61h-2.11a.5.5 0 0 1 0-1h2.11V6.37a.5.5 0 0 1 1 0v.805h2.26V6.37a.5.5 0 0 1 1 0v.805h2.26V6.37a.5.5 0 0 1 .5-.5ZM7.17 10.785H4.91v1.61h2.26v-1.61Zm3.265 0h-2.26v1.61h2.235l.025-1.61ZM7.17 8.175H4.91l.005 1.61H7.17v-1.61Zm3.265 0h-2.26v1.61h2.235l.025-1.61Z"/></g></svg>