<svg width="32" height="32" xmlns="http://www.w3.org/2000/svg"><g fill="none" fill-rule="evenodd"><path d="M0 0h32v32H0z"/><path fill="#000" d="M16 7c8.668 0 15.498 8.516 15.784 8.878.288.365.288.88 0 1.245C31.498 17.485 24.668 26 16 26 7.332 26 .502 17.485.216 17.123a1.005 1.005 0 0 1 0-1.245C.502 15.516 7.332 7 16 7Zm0 2.005c-6.434 0-11.982 5.594-13.682 7.494C4.021 18.4 9.581 23.996 16 23.996c6.434 0 11.982-5.594 13.682-7.495-1.703-1.9-7.263-7.496-13.682-7.496Zm0 1.263c3.428 0 6.217 2.796 6.217 6.232 0 3.436-2.789 6.233-6.217 6.233-3.428 0-6.217-2.797-6.217-6.233 0-3.435 2.789-6.232 6.217-6.232Zm0 2.005a4.227 4.227 0 0 0-4.217 4.227A4.227 4.227 0 0 0 16 20.727a4.227 4.227 0 0 0 4.217-4.227A4.227 4.227 0 0 0 16 12.274Z"/></g></svg>