<svg width="20" height="20" xmlns="http://www.w3.org/2000/svg"><g fill="none" fill-rule="evenodd"><path d="M0 0h20v20H0z"/><path fill="#002D72" d="M9.837 0c4.54 0 7.962 3.598 7.962 8.37 0 5.958-7.286 11.287-7.596 11.512a.627.627 0 0 1-.732 0c-.31-.225-7.596-5.555-7.596-11.513C1.875 3.6 5.298 0 9.837 0Zm0 1.25c-3.826 0-6.712 3.06-6.712 7.12 0 4.607 5.261 9.074 6.712 10.218 1.45-1.144 6.712-5.61 6.712-10.219 0-4.058-2.886-7.119-6.712-7.119Zm0 2.01a4.707 4.707 0 0 1 4.701 4.702c0 2.592-2.11 4.7-4.7 4.7a4.706 4.706 0 0 1-4.702-4.7 4.707 4.707 0 0 1 4.701-4.701Zm0 1.25a3.454 3.454 0 0 0-3.45 3.452 3.454 3.454 0 0 0 3.45 3.45 3.455 3.455 0 0 0 3.451-3.45 3.455 3.455 0 0 0-3.45-3.451Z"/></g></svg>