<svg width="32" height="32" xmlns="http://www.w3.org/2000/svg"><g transform="translate(8.000000, 8.000000)"><path fill="#002D72" d="M7.87 0c3.631 0 6.37 2.878 6.37 6.696 0 4.766-5.83 9.03-6.077 9.21a.501.501 0 0 1-.586 0c-.248-.18-6.077-4.444-6.077-9.21C1.5 2.878 4.238 0 7.87 0Zm0 1C4.809 1 2.5 3.449 2.5 6.696c0 3.686 4.21 7.26 5.37 8.175 1.16-.915 5.37-4.489 5.37-8.176C13.24 3.448 10.93 1 7.87 1Zm0 1.609a3.766 3.766 0 0 1 3.76 3.76 3.765 3.765 0 0 1-3.76 3.761 3.765 3.765 0 0 1-3.76-3.76 3.765 3.765 0 0 1 3.76-3.761Zm0 1a2.764 2.764 0 0 0-2.76 2.76A2.763 2.763 0 0 0 7.87 9.13a2.764 2.764 0 0 0 2.76-2.76 2.764 2.764 0 0 0-2.76-2.761Z"/></g></svg>