<svg width="32" height="32" xmlns="http://www.w3.org/2000/svg"><g transform="translate(8.000000, 8.000000)"><path fill="#002D72" d="M13.216 1c.816 0 1.48.663 1.48 1.478v3.587a.5.5 0 1 1-1 0v-3.46l-6.037 4.83a.5.5 0 0 1-.625 0L1 2.606v7.045c0 .264.214.479.477.479h5.87a.5.5 0 1 1 0 1h-5.87A1.48 1.48 0 0 1 0 9.652V2.478A1.48 1.48 0 0 1 1.477 1Zm-.365 1H1.842l5.504 4.403L12.851 2Zm.665 5.015a.5.5 0 0 1 .707 0l1.63 1.63a.5.5 0 0 1 0 .707l-4.892 4.893a.487.487 0 0 1-.185.114c-.01.003-.02.01-.031.013l-2.283.652a.5.5 0 0 1-.618-.618l.652-2.283.014-.032.016-.037a.5.5 0 0 1 .098-.147Zm-4.291 6.2-.172.6.6-.17-.428-.43Zm3.34-3.835-2.88 2.881.922.924 2.882-2.882-.924-.923Zm1.305-1.305-.598.598.924.923.597-.597-.923-.924Z"/></g></svg>