<svg xmlns="http://www.w3.org/2000/svg" viewBox="0 0 16 16" aria-hidden="true" style="font-size:1rem" fill="#fff"><path d="M8 0c4.412 0 8 3.589 8 8s-3.588 8-8 8-8-3.589-8-8 3.588-8 8-8zm0 14.545A6.553 6.553 0 0 0 14.545 8 6.553 6.553 0 0 0 8 1.455 6.552 6.552 0 0 0 1.455 8 6.552 6.552 0 0 0 8 14.545zM6.94 4.558a1.059 1.059 0 1 1 2.118.001 1.059 1.059 0 0 1-2.118 0zm3.424 7.386a.728.728 0 0 1-.727.727h-2.91a.728.728 0 0 1 0-1.455h1.05V7.955h-.525a.728.728 0 0 1 0-1.455h1.252c.402 0 .727.326.727.727v3.99h.406c.401 0 .727.325.727.727z"/></svg>