<svg width="20" height="20" xmlns="http://www.w3.org/2000/svg"><g fill="none" fill-rule="evenodd"><path d="M0 0h20v20H0z"/><path fill="#0064FE" d="M6.169 1.325 8.12 3.28c.92.92.96 2.392.12 3.36l-.12.13-.247.247a42.987 42.987 0 0 0 5.093 5.1l.247-.247c.933-.933 2.557-.933 3.488 0l1.95 1.955a2.45 2.45 0 0 1 .723 1.745c0 .658-.256 1.278-.722 1.745l-1.071 1.072a3.38 3.38 0 0 1-2.394.988 3.378 3.378 0 0 1-1.866-.56A43.39 43.39 0 0 1 1.183 6.662a3.404 3.404 0 0 1 .43-4.265l1.069-1.072c.932-.934 2.557-.933 3.487 0Zm-1.744.528c-.325 0-.63.127-.86.357L2.497 3.28a2.148 2.148 0 0 0-.27 2.692A42.126 42.126 0 0 0 14.012 17.77a2.14 2.14 0 0 0 2.686-.27l1.07-1.071c.23-.23.357-.536.357-.86 0-.326-.127-.63-.356-.86l-1.952-1.955a1.243 1.243 0 0 0-1.719 0l-.65.652a.626.626 0 0 1-.838.04 44.015 44.015 0 0 1-6.065-6.072.626.626 0 0 1 .041-.84l.651-.65a1.22 1.22 0 0 0 0-1.72L5.285 2.21a1.206 1.206 0 0 0-.86-.357Z"/></g></svg>