<svg width="32" height="32" xmlns="http://www.w3.org/2000/svg"><g transform="translate(8.000000, 8.000000)"><path fill="#002D72" d="M8.543 2.539a.492.492 0 0 1 .382 0l6.781 2.863a.476.476 0 0 1 0 .877l-2.612 1.104v3.23c0 .181-.104.347-.268.427L8.95 12.95a.49.49 0 0 1-.433 0l-3.875-1.91a.475.475 0 0 1-.268-.426V7.383l-1.938-.818v2.54l.944 2.79a.47.47 0 0 1-.066.43.487.487 0 0 1-.393.198H.984a.486.486 0 0 1-.393-.199.47.47 0 0 1-.066-.43l.944-2.79V5.841c0-.059.014-.114.034-.166a.46.46 0 0 1 .09-.146l.031-.035a.493.493 0 0 1 .138-.092Zm3.582 5.253-3.2 1.351a.496.496 0 0 1-.382 0l-3.2-1.351v2.527l3.391 1.67 3.39-1.67V7.792ZM1.953 10.69l-.297.877h.594l-.297-.877Zm6.781-7.194L3.182 5.84l5.552 2.344 5.552-2.344-5.552-2.344Z"/></g></svg>