<svg width="20" height="20" xmlns="http://www.w3.org/2000/svg"><g fill="none" fill-rule="evenodd"><path d="M0-1h20v20H0z"/><path fill="#002D72" d="M17.228.875c.237 0 .453.134.56.346l1.521 3.043.008.023.015.042a.62.62 0 0 1 .038.192c0 .008.005.015.005.023v.76a2.947 2.947 0 0 1-1.522 2.56v8.854c0 .345-.28.625-.625.625H2.772a.625.625 0 0 1-.625-.625V7.86A2.94 2.94 0 0 1 .625 5.304v-.76c0-.008.004-.015.005-.023a.627.627 0 0 1 .038-.193c.006-.013.009-.027.014-.04l.009-.024L2.213 1.22a.626.626 0 0 1 .559-.346Zm-2.178 6.84a3.826 3.826 0 0 1-2.504 1.241A3.59 3.59 0 0 1 10 8.174a3.57 3.57 0 0 1-2.54.783A3.838 3.838 0 0 1 4.95 7.715a2.78 2.78 0 0 1-1.553.48v7.898h7.88V10.67c0-.345.28-.625.626-.625H15c.346 0 .625.28.625.625v5.422h.978V8.199a2.793 2.793 0 0 1-1.553-.484Zm-.675 3.581h-1.848v4.797h1.848v-4.797Zm-5.313-1.25c.346 0 .626.28.626.625v3.478c0 .346-.28.625-.626.625H5a.624.624 0 0 1-.625-.625v-3.478c0-.345.28-.625.625-.625Zm-.624 1.25H5.624v2.228h2.813v-2.228Zm.937-6.127H5.679v1.459A2.596 2.596 0 0 0 7.562 7.71c.683.053 1.317-.191 1.813-.67V5.17Zm4.946 0h-3.696v1.873c.497.48 1.129.724 1.82.668a2.586 2.586 0 0 0 1.876-1.082v-1.46Zm3.804 0h-2.554v1.379c.49.401 1.03.509 1.534.298.6-.25 1.02-.883 1.02-1.542V5.17Zm-13.696 0H1.875v.135a1.7 1.7 0 0 0 1.018 1.538c.507.21 1.047.105 1.536-.294v-1.38Zm.586-3.044H3.158l-.897 1.794h2.306l.448-1.794Zm8.682 0h-3.072v1.794h3.52l-.448-1.794Zm-4.322 0H6.303l-.449 1.794h3.521V2.125Zm7.467 0h-1.857l.448 1.794h2.306l-.897-1.794Z"/></g></svg>