<?xml version="1.0" encoding="UTF-8"?>
<svg width="15px" height="15px" viewBox="0 0 32 32" version="1.1" xmlns="http://www.w3.org/2000/svg" xmlns:xlink="http://www.w3.org/1999/xlink">
  <!-- Generator: Sketch 48.2 (47327) - http://www.bohemiancoding.com/sketch -->
  <title>icon / phone</title>
  <desc>Created with Sketch.</desc>
  <defs>
    <path d="M12.2866417,10.1235 L12.2966439,10.1235 L12.2866417,10.1235 Z M7.08051546,2.9655 C6.56040294,2.9655 6.07229735,3.1675 5.70521794,3.5355 L3.99384772,5.2495 C2.85160062,6.3935 2.67156167,8.2035 3.56175425,9.5545 C8.47281665,16.9875 14.9942274,23.5165 22.4188336,28.4335 C23.7671253,29.3275 25.5765167,29.1445 26.7167633,28.0025 L28.430134,26.2875 C28.7972134,25.9195 28.9992571,25.4305 28.9992571,24.9115 C28.9992571,24.3905 28.7972134,23.9025 28.430134,23.5355 L25.3074585,20.4085 C24.5722994,19.6715 23.2930227,19.6725 22.5568634,20.4085 L21.5166384,21.4505 C21.1515594,21.8135 20.5734344,21.8425 20.1753483,21.5165 C16.6845931,18.6545 13.3298674,15.2945 10.4722492,11.8005 C10.1451784,11.4015 10.1751849,10.8215 10.5382635,10.4575 L11.5794887,9.4155 C12.3366525,8.6555 12.3366525,7.4215 11.5794887,6.6635 L8.45581298,3.5355 C8.08873357,3.1675 7.59962776,2.9655 7.08051546,2.9655 Z M24.3002406,30.9995 C23.2660169,30.9995 22.2247916,30.7055 21.3145947,30.1035 C13.6679405,25.0395 6.95248776,18.3155 1.89339333,10.6595 C0.480087595,8.5175 0.768149911,5.6475 2.57954177,3.8345 L4.29091199,2.1195 C5.7822346,0.6255 8.38279718,0.6275 9.87011893,2.1195 L12.9937947,5.2475 C14.5311272,6.7865 14.5311272,9.2905 12.9947949,10.8315 L12.9937947,10.8315 L12.5987092,11.2275 C15.0482391,14.1385 17.8408432,16.9345 20.7464718,19.3885 L21.1425575,18.9925 C22.6348803,17.4985 25.2334425,17.4995 26.7227646,18.9935 L29.84444,22.1195 C30.5896012,22.8645 30.9996899,23.8555 30.9996899,24.9115 C30.9996899,25.9655 30.5896012,26.9575 29.84444,27.7035 L28.1310693,29.4185 C27.0908443,30.4605 25.7005435,30.9995 24.3002406,30.9995 Z" id="path-1"></path>
  </defs>
  <g id="Icons" stroke="none" stroke-width="1" fill="none" fill-rule="evenodd">
    <g id="icon-/-phone">
      <rect id="fill" x="0" y="0" width="32" height="32"></rect>
      <mask id="mask-2" fill="white">
        <use xlink:href="#path-1"></use>
      </mask>
      <use id="shape" fill="#020303" xlink:href="#path-1"></use>
      <g id="colors-/-grey-/-grey" mask="url(#mask-2)" fill="#0059e4">
        <rect id="color" x="0" y="0" width="32" height="32"></rect>
      </g>
    </g>
  </g>
</svg>