
<svg width="24px" height="19px" viewBox="0 0 24 19" version="1.1" xmlns="http://www.w3.org/2000/svg" xmlns:xlink="http://www.w3.org/1999/xlink">
    <!-- Generator: Sketch 50.2 (55047) - http://www.bohemiancoding.com/sketch -->
    <desc>Created with Sketch.</desc>
    <defs></defs>
    <g id="FOOTER" stroke="none" stroke-width="1" fill="none" fill-rule="evenodd">
        <path d="M23.07405,2.451075 C23.2893,2.706075 23.30955,3.073575 23.12355,3.351075 C22.5918,4.146075 21.7788,4.701825 21.0618,5.191575 C20.99505,5.236575 20.92905,5.282325 20.86305,5.327325 C20.86305,5.383575 20.8638,5.439075 20.8638,5.495325 C20.8638,11.810325 16.05855,18.342075 8.0178,18.342075 C5.5608,18.342075 3.16755,17.640825 1.0953,16.314075 C0.8013,16.125075 0.67605,15.759075 0.7938,15.429825 C0.9108,15.101325 1.2378,14.892075 1.5873,14.937075 C3.0723,15.111075 4.54005,14.868825 5.85255,14.247075 C4.57155,13.681575 3.5553,12.589575 3.1083,11.199075 C3.02805,10.947075 3.0858,10.671075 3.2613,10.473075 C3.2628,10.470825 3.2643,10.468575 3.2658,10.467075 C2.2263,9.540825 1.5828,8.193825 1.5828,6.727575 C1.5828,6.717075 1.58355,6.652575 1.5843,6.642075 C1.5948,6.382575 1.73955,6.146325 1.96605,6.019575 C2.02905,5.984325 2.0958,5.958825 2.16405,5.943075 C1.8093,5.249325 1.6173,4.471575 1.6173,3.666825 C1.6173,2.783325 1.85205,1.913325 2.29455,1.151325 C2.4183,0.938325 2.6388,0.799575 2.88405,0.780825 C3.1323,0.760575 3.3693,0.864075 3.52455,1.054575 C5.3613,3.309075 7.9938,4.767075 10.8483,5.141325 C10.84755,5.094825 10.8468,5.048325 10.8468,5.001825 C10.8468,2.244075 13.0908,7.49999999e-05 15.84855,7.49999999e-05 C17.07855,7.49999999e-05 18.27105,0.459825 19.1838,1.273575 C19.9158,1.091325 20.61555,0.803325 21.26805,0.415575 C21.53655,0.256575 21.8748,0.279825 22.11855,0.473325 C22.36155,0.667575 22.46055,0.991575 22.36605,1.288575 L22.28355,1.549575 C22.1943,1.836075 22.11555,2.090325 22.0113,2.324325 C22.07055,2.302575 22.13205,2.277075 22.19505,2.249325 C22.5018,2.113575 22.85955,2.196075 23.07405,2.451075 Z M20.2158,3.952575 C20.2983,3.896325 20.38155,3.839325 20.4648,3.782325 C20.33805,3.738075 20.2113,3.684825 20.08455,3.621825 C19.83855,3.500325 19.67805,3.253575 19.6668,2.979825 C19.6623,2.877825 19.67955,2.778075 19.71405,2.685825 C19.51005,2.740575 19.30455,2.788575 19.09605,2.829075 C18.84255,2.879325 18.58155,2.795325 18.40455,2.607075 C17.74455,1.903575 16.8123,1.500075 15.84855,1.500075 C13.9173,1.500075 12.3468,3.071325 12.3468,5.001825 C12.3468,5.274075 12.3768,5.543325 12.4368,5.801325 C12.49005,6.030825 12.43305,6.271575 12.28155,6.452325 C12.1308,6.633075 11.91105,6.734325 11.6688,6.720075 C8.46555,6.559575 5.4408,5.193825 3.19605,2.929575 C3.14355,3.171075 3.1173,3.418575 3.1173,3.666825 C3.1173,4.839825 3.70005,5.929575 4.6758,6.581325 C4.95405,6.768075 5.07555,7.116075 4.9728,7.434825 C4.8708,7.753575 4.5723,7.966575 4.23405,7.954575 C3.90705,7.944075 3.58155,7.900575 3.26355,7.827075 C3.6543,8.999325 4.6413,9.909825 5.89155,10.161075 C6.23205,10.229325 6.4818,10.523325 6.49305,10.871325 C6.50505,11.218575 6.2763,11.529075 5.9403,11.619825 C5.6568,11.697075 5.3658,11.748825 5.07255,11.775075 C5.7078,12.620325 6.70905,13.151325 7.80855,13.171575 C8.1258,13.178325 8.4048,13.383075 8.50605,13.683825 C8.60655,13.984575 8.5068,14.316075 8.2578,14.512575 C7.1373,15.390075 5.8563,15.987825 4.4988,16.281825 C5.6283,16.651575 6.8148,16.842075 8.0178,16.842075 C15.11955,16.842075 19.3638,11.073075 19.3638,5.495325 C19.3638,5.321325 19.3608,5.149575 19.3533,4.977825 C19.34205,4.725825 19.45905,4.484325 19.6638,4.336575 C19.84155,4.208325 20.0283,4.080825 20.2158,3.952575 Z" id="shape" fill="#0064FE"></path>
    </g>
</svg>
