
<svg width="24px" height="24px" viewBox="0 0 24 24" version="1.1" xmlns="http://www.w3.org/2000/svg" xmlns:xlink="http://www.w3.org/1999/xlink">
    <!-- Generator: Sketch 50.2 (55047) - http://www.bohemiancoding.com/sketch -->
    <desc>Created with Sketch.</desc>
    <defs></defs>
    <g id="FOOTER" stroke="none" stroke-width="1" fill="none" fill-rule="evenodd">
        <path d="M18.8475,0.75 C21.27525,0.75 23.25,2.72475 23.25,5.1525 L23.25,18.8475 C23.25,21.27525 21.27525,23.25 18.8475,23.25 L5.1525,23.25 C2.72475,23.25 0.75,21.27525 0.75,18.8475 L0.75,5.1525 C0.75,2.72475 2.72475,0.75 5.1525,0.75 L18.8475,0.75 Z M18.8475,21.75 C20.448,21.75 21.75,20.448 21.75,18.8475 L21.75,9.55425 L17.22075,9.55425 C17.57025,10.29825 17.772,11.12475 17.772,12 C17.772,15.183 15.183,17.772 12,17.772 C8.817,17.772 6.228,15.183 6.228,12 C6.228,11.12475 6.42975,10.29825 6.77925,9.55425 L2.25,9.55425 L2.25,18.8475 C2.25,20.448 3.552,21.75 5.1525,21.75 L18.8475,21.75 Z M21.75,5.1525 C21.75,3.552 20.448,2.25 18.8475,2.25 L7.728,2.25 L7.728,8.05425 L7.7985,8.05425 C8.85225,6.93375 10.344,6.228 12,6.228 C13.656,6.228 15.14775,6.93375 16.2015,8.05425 L21.75,8.05425 L21.75,5.1525 Z M3.375,2.87475 C2.6955,3.4065 2.25,4.22475 2.25,5.1525 L2.25,8.05425 L3.375,8.05425 L3.375,2.87475 Z M6.228,2.25 L5.1525,2.25 C5.05725,2.25 4.968,2.26875 4.875,2.27775 L4.875,8.05425 L6.228,8.05425 L6.228,2.25 Z M12,7.728 C9.64425,7.728 7.728,9.64425 7.728,12 C7.728,14.35575 9.64425,16.272 12,16.272 C14.35575,16.272 16.272,14.35575 16.272,12 C16.272,9.64425 14.35575,7.728 12,7.728 Z M17.25,6 L17.25,4.875 C17.25,4.4625 17.5875,4.125 18,4.125 L19.125,4.125 C19.5375,4.125 19.875,4.4625 19.875,4.875 L19.875,6 C19.875,6.4125 19.5375,6.75 19.125,6.75 L18,6.75 C17.5875,6.75 17.25,6.4125 17.25,6 Z" id="shape" fill="#0064FE"></path>
    </g>
</svg>