<svg xmlns="http://www.w3.org/2000/svg" width="50" height="50" viewBox="0 0 50 50">
    <g fill="none" fill-rule="evenodd">
        <path d="M-7-7h64v64H-7z"/>
        <path stroke="#0064FE" stroke-linecap="round" stroke-linejoin="round" stroke-width="1.5" d="M24.881 14.714V1M20 3.032l5.084 3.072L30.136 3M24.881 35.286V49M19.797 46.942l5.084-3.072 5.052 3.104M14.636 24.984H1M3.046 30.096l3.055-5.11-3.086-5.082M35.124 25l13.602-.016M46.68 30.096l-3.054-5.11 3.087-5.082M18.068 18.138L8.002 8.015M5.854 13.087l5.754-1.444L13 5.857M31.704 31.855L41.75 41.958M36.707 44.118l1.438-5.787 5.752-1.399M18.043 31.837L7.977 41.96M13.02 44.118l-1.436-5.785-5.752-1.4M31.69 18.134L41.728 8.017M43.873 13.087l-5.752-1.442L36.73 5.86"/>
        <path stroke="#0064FE" stroke-linejoin="round" stroke-width="1.5" d="M35.109 25l6.818-6.857H31.7V7.857l-6.819 6.857-6.818-6.857v10.286H7.836L14.654 25l-6.818 6.857h10.227v10.286l6.818-6.857 6.819 6.857V31.857h10.227z"/>
    </g>
</svg>
