
<svg width="47px" height="45px" viewBox="0 0 47 45" version="1.1" xmlns="http://www.w3.org/2000/svg" xmlns:xlink="http://www.w3.org/1999/xlink">
    <!-- Generator: Sketch 51.3 (57544) - http://www.bohemiancoding.com/sketch -->
    <desc>Created with Sketch.</desc>
    <defs></defs>
    <g id="PAGE_Assortment" stroke="none" stroke-width="1" fill="none" fill-rule="evenodd">
        <g id="PAGE_Assortment-overview-(Meat-&amp;-Poultry)" transform="translate(-879.000000, -1564.000000)" fill="#0064FE" stroke="#F2F5F8" stroke-width="1.6">
            <g id="Group-26" transform="translate(12.000000, 1402.000000)">
                <path d="M890.3125,206.031276 C890.027219,206.031276 889.73875,205.953182 889.48375,205.796994 C888.605594,205.263088 868,192.513088 868,176.725401 C868,167.977307 873.496844,163.607244 878.944281,163.154619 C883.043406,162.815151 887.770469,164.746776 890.3125,169.529619 C892.897563,164.654338 897.755312,162.687651 901.962813,163.039869 C907.097875,163.465401 912.625,167.591619 912.625,175.646432 C912.625,190.297776 892.111844,205.111682 891.238469,205.734838 C890.96275,205.930869 890.637625,206.031276 890.3125,206.031276 Z M879.902125,166.303869 C879.669437,166.303869 879.438344,166.313432 879.20725,166.332557 C875.2165,166.662463 871.1875,170.004557 871.1875,176.725401 C871.1875,188.992494 886.363187,199.904901 890.247156,202.496338 C894.0865,199.557463 909.4375,187.089557 909.4375,175.646432 C909.4375,169.575838 905.551938,166.536557 901.699844,166.216213 C897.564062,165.867182 892.954938,168.409213 891.885531,174.833619 C891.756437,175.600213 891.091844,176.164401 890.3125,176.164401 C889.533156,176.164401 888.868563,175.600213 888.741062,174.833619 C887.746562,168.868213 883.700031,166.303869 879.902125,166.303869 Z" id="shape"></path>
            </g>
        </g>
    </g>
</svg>