<?xml version="1.0" encoding="UTF-8"?>
<svg width="64px" height="64px" viewBox="0 0 64 64" version="1.1" xmlns="http://www.w3.org/2000/svg" xmlns:xlink="http://www.w3.org/1999/xlink">
    <title>ICON_professional_4</title>
    <g id="ICON_professional_4" stroke="none" stroke-width="1" fill="none" fill-rule="evenodd">
        <g id="vegan" transform="translate(3.000000, 37.000000)" fill="#0064FE" fill-rule="nonzero">
            <path d="M0.499938207,1.31340851 C0.499938207,0.899194945 0.835724645,0.563408508 1.24993821,0.563408508 L11.2499382,0.563408508 C11.6641518,0.563408508 11.9999382,0.899194945 11.9999382,1.31340851 L11.9999382,21.3134085 C11.9999382,21.7276221 11.6641518,22.0634085 11.2499382,22.0634085 L1.24993821,22.0634085 C0.835724645,22.0634085 0.499938207,21.7276221 0.499938207,21.3134085 L0.499938207,1.31340851 Z M1.99993821,2.06340851 L1.99993821,20.5634085 L10.4999382,20.5634085 L10.4999382,2.06340851 L1.99993821,2.06340851 Z" id="Rectangle"></path>
            <path d="M48.6964189,15.6677009 C47.5566534,16.2753426 42.9316548,18.7663405 41.8722436,19.32605 C37.6653201,21.5486574 35.5274187,22.4517948 33.4711837,22.7922311 C31.3551147,23.1425736 29.2983281,22.8652274 25.8893587,21.8116916 C24.0520699,21.2438809 14.3423012,17.8125183 11.4891011,16.8525632 C11.0965121,16.7204771 10.6711789,16.9316565 10.5390929,17.3242456 C10.4070068,17.7168346 10.6181862,18.1421678 11.0107753,18.2742538 C13.8389268,19.2257815 23.5750729,22.6664656 25.4464552,23.2448129 C29.0581371,24.3609966 31.3293555,24.6672577 33.7161928,24.272086 C35.9807145,23.8971651 38.228352,22.9476707 42.5729453,20.6523295 C43.6387928,20.0892195 48.2672648,17.5963508 49.4020904,16.9913427 C52.6723002,15.2478999 55.7155607,13.6691227 59.0853484,11.9842289 C59.543222,11.7552921 59.6422492,11.1450593 59.2802683,10.7830784 C56.4446589,7.94746904 54.1878075,7.2347791 51.0526002,8.08983564 L40.0079328,11.8535259 C39.6158754,11.9871818 39.4063996,12.4133566 39.5400556,12.805414 C39.6737115,13.1974713 40.0998863,13.4069471 40.4919437,13.2732911 L51.4919437,9.52329115 C53.766251,8.90437398 55.3755964,9.27097836 57.4578664,11.1224703 C54.4490365,12.6367091 51.6654339,14.0848337 48.6964189,15.6677009 Z" id="Path"></path>
            <path d="M18.7499382,3.06340851 L11.2499382,3.06340851 C10.8357246,3.06340851 10.4999382,3.39919495 10.4999382,3.81340851 C10.4999382,4.22762207 10.8357246,4.56340851 11.2499382,4.56340851 L18.7499382,4.56340851 C23.2401518,4.56340851 26.6400248,6.5141553 29.4696081,9.34373859 C29.6102604,9.48439088 29.8010258,9.56340851 29.9999382,9.56340851 L37.4999382,9.56340851 C40.4999382,9.56340851 40.4999382,13.0634085 37.4999382,13.0634085 L23.7499382,13.0634085 C23.3357246,13.0634085 22.9999382,13.3991949 22.9999382,13.8134085 C22.9999382,14.2276221 23.3357246,14.5634085 23.7499382,14.5634085 L37.4999382,14.5634085 C42.4999382,14.5634085 42.4999382,8.06340851 37.4999382,8.06340851 L30.30785,8.06340851 C27.2675833,5.09823932 23.6050226,3.06340851 18.7499382,3.06340851 Z" id="Path"></path>
        </g>
        <g id="Group" transform="translate(20.614815, 3.900000)" stroke="#0064FE" stroke-linejoin="round" stroke-width="1.5">
            <polygon id="Path" points="7.14551971 6.00013866e-14 9.18709677 5.10394265 14.2910394 5.10394265 10.2078853 8.55420789 11.7390681 14.1093391 7.14551971 10.5059556 2.55197133 14.0664659 4.08315412 8.56237419 -3.2632333e-14 5.10394265 5.10394265 5.10394265"></polygon>
            <polygon id="Path-Copy" points="27.2248507 6.00013866e-14 29.2664277 5.10394265 34.3703704 5.10394265 30.2872162 8.55420789 31.818399 14.1093391 27.2248507 10.5059556 22.6313023 14.0664659 24.1624851 8.56237419 20.0793309 5.10394265 25.1832736 5.10394265"></polygon>
            <polygon id="Path-Copy-2" points="7.14551971 17.1851852 9.18709677 22.2891278 14.2910394 22.2891278 10.2078853 25.7393931 11.7390681 31.2945243 7.14551971 27.6911407 2.55197133 31.2516511 4.08315412 25.7475594 -2.94743653e-14 22.2891278 5.10394265 22.2891278"></polygon>
            <polygon id="Path-Copy-3" points="27.2248507 17.1851852 29.2664277 22.2891278 34.3703704 22.2891278 30.2872162 25.7393931 31.818399 31.2945243 27.2248507 27.6911407 22.6313023 31.2516511 24.1624851 25.7475594 20.0793309 22.2891278 25.1832736 22.2891278"></polygon>
        </g>
    </g>
</svg>