
<svg width="50px" height="51px" viewBox="0 0 50 51" version="1.1" xmlns="http://www.w3.org/2000/svg" xmlns:xlink="http://www.w3.org/1999/xlink">
    <!-- Generator: Sketch 51.3 (57544) - http://www.bohemiancoding.com/sketch -->
    <desc>Created with Sketch.</desc>
    <defs></defs>
    <g id="PAGE_Assortment" stroke="none" stroke-width="1" fill="none" fill-rule="evenodd" stroke-linecap="round" stroke-linejoin="round">
        <g id="ICON-COMP-Sustainability" transform="translate(-563.000000, -36.000000)" stroke="#0064FE" stroke-width="1.5">
            <g id="Group-2">
                <g id="Group-40" transform="translate(564.000000, 36.500000)">
                    <path d="M29.3697007,8.49586114 C29.3697007,12.6771111 21.7794399,21.7541945 21.7794399,21.7541945 C21.7794399,21.7541945 14.1933529,12.6771111 14.1933529,8.49586114 C14.1933529,4.31252781 17.5888312,0.920861145 21.7794399,0.920861145 C25.9721355,0.920861145 29.3697007,4.31252781 29.3697007,8.49586114 L29.3697007,8.49586114 Z" id="Stroke-1490"></path>
                    <path d="M24.6270921,8.49586114 C24.6270921,10.0646111 23.3519616,11.3375278 21.7804834,11.3375278 C20.2090051,11.3375278 18.9338747,10.0646111 18.9338747,8.49586114 C18.9338747,6.92711114 20.2090051,5.65419448 21.7804834,5.65419448 C23.3519616,5.65419448 24.6270921,6.92711114 24.6270921,8.49586114 L24.6270921,8.49586114 Z" id="Stroke-1491"></path>
                    <path d="M47.3941181,22.3214861 C47.3941181,26.0902361 40.5635094,34.2548195 40.5635094,34.2548195 C40.5635094,34.2548195 33.7329007,26.0902361 33.7329007,22.3214861 C33.7329007,18.5569028 36.7882051,15.5048195 40.5635094,15.5048195 C44.3346399,15.5048195 47.3941181,18.5569028 47.3941181,22.3214861 L47.3941181,22.3214861 Z" id="Stroke-1492"></path>
                    <path d="M43.1244138,22.3214861 C43.1244138,23.7360695 41.9765877,24.8798195 40.5637181,24.8798195 C39.1487616,24.8798195 38.0030225,23.7360695 38.0030225,22.3214861 C38.0030225,20.9089861 39.1487616,19.7652361 40.5637181,19.7652361 C41.9765877,19.7652361 43.1244138,20.9089861 43.1244138,22.3214861 L43.1244138,22.3214861 Z" id="Stroke-1493"></path>
                    <path d="M9.25373553,48.8366945 C9.25373553,44.1887778 1.69477901,37.1283611 0.718083356,31.7929445 C-0.25026447,26.4991945 3.04712683,21.7533611 9.25373553,21.7533611 C15.4645181,21.7533611 18.6993007,26.4033611 17.7914747,31.7929445 C17.0234747,36.3762778 9.25373553,44.1887778 9.25373553,48.8366945 Z" id="Stroke-1494"></path>
                    <path d="M13.1632312,29.8937778 C13.1632312,32.0500278 11.4143616,33.7979445 9.25436162,33.7979445 C7.09644857,33.7979445 5.34549205,32.0500278 5.34549205,29.8937778 C5.34549205,27.7396111 7.09644857,25.9937778 9.25436162,25.9937778 C11.4143616,25.9937778 13.1632312,27.7396111 13.1632312,29.8937778 L13.1632312,29.8937778 Z" id="Stroke-1495"></path>
                    <path d="M23.6956834,24.8787778 L33.9342921,31.6912778" id="Stroke-1496"></path>
                    <path d="M14.5857007,46.3571111 L35.3446573,36.6841945" id="Stroke-1497"></path>
                </g>
            </g>
        </g>
    </g>
</svg>