<?xml version="1.0" encoding="UTF-8"?>
<svg width="226px" height="150px" viewBox="0 0 226 150" version="1.1" xmlns="http://www.w3.org/2000/svg" xmlns:xlink="http://www.w3.org/1999/xlink">
    <title>82D5D89C-1EE8-4B00-AD49-5889BECE2687@1x</title>
    <defs>
        <polygon id="path-1" points="0.0289660881 0.45625 39.7179306 0.45625 39.7179306 43.159375 0.0289660881 43.159375"></polygon>
        <polygon id="path-3" points="0.539104167 0.59296875 69.7092292 0.59296875 69.7092292 88.2354687 0.539104167 88.2354687"></polygon>
        <polygon id="path-5" points="0.726250437 0.760703125 42.0067309 0.760703125 42.0067309 68.75 0.726250437 68.75"></polygon>
    </defs>
    <g id="CMSDT-3260-Become-a-Customer" stroke="none" stroke-width="1" fill="none" fill-rule="evenodd">
        <g id="PAGE_Become-a-Customer-1440" transform="translate(-847.000000, -973.000000)">
            <g id="Group-2" transform="translate(252.000000, 829.000000)">
                <g id="business-infos-2" transform="translate(595.000000, 144.000000)">
                    <g id="Group-32" transform="translate(65.916667, 16.406250)">
                        <polyline id="Fill-1" fill="#F2F5F8" points="88.3149931 83.1053125 88.3149931 113.9475 74.0173542 102.085 59.7197153 113.9475 59.7197153 83.1053125"></polyline>
                        <g id="Group-31" transform="translate(0.000000, 0.188281)">
                            <g id="Group-4" transform="translate(54.145833, 46.875000)">
                                <mask id="mask-2" fill="white">
                                    <use xlink:href="#path-1"></use>
                                </mask>
                                <g id="Clip-3"></g>
                                <path d="M37.6038104,21.8078125 C39.9964285,18.8421875 40.4711854,14.6234375 38.4466021,11.1320312 C36.4220188,7.6421875 32.5078243,5.93828125 28.7380188,6.5171875 C27.3553382,2.9765625 23.9159007,0.45625 19.8714424,0.45625 C15.8222757,0.45625 12.3875465,2.9765625 11.004866,6.521875 C7.23113681,5.94140625 3.32086597,7.6421875 1.30099097,11.1320312 C-0.723592361,14.6234375 -0.248835417,18.846875 2.13907431,21.8078125 C-0.248835417,24.7734375 -0.723592361,28.99375 1.30099097,32.4835937 C3.32086597,35.975 7.23506042,37.6773438 11.0095743,37.1007813 C12.3922549,40.6390625 15.826984,43.159375 19.8714424,43.159375 C23.920609,43.159375 27.3553382,40.6390625 28.7419424,37.09375 C32.5125326,37.6734375 36.4220188,35.975 38.4466021,32.4835937 C40.4711854,28.99375 39.9964285,24.76875 37.6038104,21.8078125" id="Fill-2" fill="#F2F5F8" mask="url(#mask-2)"></path>
                            </g>
                            <path d="M81.1658597,68.6828125 C81.1658597,72.6117187 77.9641931,75.8 74.017825,75.8 C70.0706722,75.8 66.8682208,72.6117187 66.8682208,68.6828125 C66.8682208,64.7492187 70.0706722,61.565625 74.017825,61.565625 C77.9641931,61.565625 81.1658597,64.7492187 81.1658597,68.6828125" id="Fill-5" fill="#F2F5F8"></path>
                            <g id="Group-9" transform="translate(7.062500, 0.000000)">
                                <mask id="mask-4" fill="white">
                                    <use xlink:href="#path-3"></use>
                                </mask>
                                <g id="Clip-8"></g>
                                <polygon id="Fill-7" fill="#F2F5F8" mask="url(#mask-4)" points="69.7092292 88.2354687 0.539104167 88.2354687 0.539104167 0.5925 45.8419028 0.5925 56.9810347 12.520625 69.7092292 26.18"></polygon>
                            </g>
                            <path d="M65.5749201,27.5955469 L47.549066,27.5955469 L47.549066,9.64945313 C47.549066,9.56351562 47.526309,9.48304687 47.5004132,9.40648438 L65.8197535,27.6447656 C65.742066,27.6182031 65.6620243,27.5955469 65.5749201,27.5955469 M68.2202188,27.8244531 L47.3191424,7.01664063 C47.1723993,6.87054687 46.9730799,6.78773437 46.7643438,6.78773437 L0.785114583,6.78773437 C0.351163194,6.78773437 0.000392361111,7.13695313 0.000392361111,7.56898437 L0.000392361111,94.9619531 C0.000392361111,95.3932031 0.351163194,95.7432031 0.785114583,95.7432031 L45.8917326,95.7432031 C46.325684,95.7432031 46.6764549,95.3932031 46.6764549,94.9619531 C46.6764549,94.5299219 46.325684,94.1807031 45.8917326,94.1807031 L1.56983681,94.1807031 L1.56983681,8.35023437 L46.4394687,8.35023437 L47.0091771,8.91742187 C46.9314896,8.89164063 46.8514479,8.86820313 46.7643438,8.86820313 C46.3311771,8.86820313 45.9796215,9.21820312 45.9796215,9.64945313 L45.9796215,28.3767969 C45.9796215,28.8088281 46.3311771,29.1580469 46.7643438,29.1580469 L65.5749201,29.1580469 C66.0088715,29.1580469 66.3596424,28.8088281 66.3596424,28.3767969 C66.3596424,28.2900781 66.3368854,28.2103906 66.3102049,28.1322656 L66.8806979,28.7002344 L66.8806979,40.8611719 C66.8806979,41.2932031 67.2314688,41.6424219 67.6654201,41.6424219 C68.0993715,41.6424219 68.4501424,41.2932031 68.4501424,40.8611719 L68.4501424,28.3767969 C68.4501424,28.1689844 68.3677465,27.9705469 68.2202188,27.8244531" id="Fill-10" fill="#99ABC7"></path>
                            <path d="M33.401309,41.6427344 L15.3346493,41.6427344 C14.9006979,41.6427344 14.5499271,41.2935156 14.5499271,40.8614844 C14.5499271,40.4294531 14.9006979,40.0802344 15.3346493,40.0802344 L33.401309,40.0802344 C33.8352604,40.0802344 34.1860312,40.4294531 34.1860312,40.8614844 C34.1860312,41.2935156 33.8352604,41.6427344 33.401309,41.6427344" id="Fill-12" fill="#99ABC7"></path>
                            <path d="M40.6285222,54.1275 L15.3345708,54.1275 C14.9006194,54.1275 14.5498486,53.7782812 14.5498486,53.34625 C14.5498486,52.9142187 14.9006194,52.565 15.3345708,52.565 L40.6285222,52.565 C41.0624736,52.565 41.4132444,52.9142187 41.4132444,53.34625 C41.4132444,53.7782812 41.0624736,54.1275 40.6285222,54.1275" id="Fill-14" fill="#99ABC7"></path>
                            <path d="M40.6285222,66.6122656 L15.3345708,66.6122656 C14.9006194,66.6122656 14.5498486,66.2630469 14.5498486,65.8310156 C14.5498486,65.3989844 14.9006194,65.0497656 15.3345708,65.0497656 L40.6285222,65.0497656 C41.0624736,65.0497656 41.4132444,65.3989844 41.4132444,65.8310156 C41.4132444,66.2630469 41.0624736,66.6122656 40.6285222,66.6122656" id="Fill-16" fill="#99ABC7"></path>
                            <path d="M40.6285222,79.0969531 L15.3345708,79.0969531 C14.9006194,79.0969531 14.5498486,78.7477344 14.5498486,78.3157031 C14.5498486,77.8836719 14.9006194,77.5344531 15.3345708,77.5344531 L40.6285222,77.5344531 C41.0624736,77.5344531 41.4132444,77.8836719 41.4132444,78.3157031 C41.4132444,78.7477344 41.0624736,79.0969531 40.6285222,79.0969531" id="Fill-18" fill="#99ABC7"></path>
                            <path d="M77.0246451,87.465625 C75.341416,91.1289062 71.730909,93.4640625 67.662909,93.4640625 C63.5980479,93.4640625 59.9898951,91.13125 58.3090201,87.4710938 C56.8737632,87.6078125 55.4644021,87.44375 54.1499924,87.021875 L54.1499924,114.738281 L67.1606868,103.94375 C67.4518188,103.702344 67.874784,103.702344 68.165916,103.94375 L81.1758257,114.738281 L81.1758257,87.0171875 C79.8637701,87.4359375 78.4567632,87.6007813 77.0246451,87.465625" id="Fill-20" fill="#F2F7FF"></path>
                            <path d="M67.6631444,79.2289844 C63.2883181,79.2289844 59.7296028,75.6860156 59.7296028,71.3313281 C59.7296028,66.9750781 63.2883181,63.4321094 67.6631444,63.4321094 C72.0371861,63.4321094 75.5959014,66.9750781 75.5959014,71.3313281 C75.5959014,75.6860156 72.0371861,79.2289844 67.6631444,79.2289844 M84.7834292,70.8422656 C87.0654014,68.0141406 87.3690889,64.1688281 85.5587347,61.0461719 C83.7452417,57.9211719 80.2500889,56.2625781 76.6489986,56.8117969 C76.2903806,56.8657031 75.9309778,56.6633594 75.7983597,56.3227344 C74.4792417,52.9438281 71.2854222,50.7610156 67.6631444,50.7610156 C64.0400819,50.7610156 60.8462625,52.9453906 59.5287139,56.3274219 C59.3953111,56.6688281 59.0421861,56.8703906 58.6772903,56.8164844 C55.0769847,56.2657031 51.5794778,57.9235156 49.7722625,61.0453906 C47.9603389,64.1703906 48.2624569,68.0149219 50.542075,70.8422656 C50.7727833,71.1274219 50.7727833,71.5336719 50.5428597,71.8196094 C48.2632417,74.6500781 47.9619083,78.4953906 49.7722625,81.6164844 C51.5794778,84.7414844 55.0746306,86.4039844 58.6819986,85.8516406 C58.7220194,85.8453906 58.7620403,85.8422656 58.8020611,85.8422656 C59.1206583,85.8422656 59.4133597,86.0367969 59.5326375,86.3407031 C60.8525403,89.7188281 64.0447903,91.9016406 67.6631444,91.9016406 C71.2838528,91.9016406 74.4792417,89.7164844 75.8022833,86.3336719 C75.9364708,85.9922656 76.2872417,85.7914844 76.6529222,85.8453906 C80.2477347,86.3953906 83.7491653,84.7375781 85.5587347,81.6164844 C87.3714431,78.4914844 87.0677556,74.6461719 84.7834292,71.8211719 C84.5527208,71.5344531 84.5527208,71.1282031 84.7834292,70.8422656" id="Fill-22" fill="#FFFFFF"></path>
                            <g id="Group-26" transform="translate(46.298611, 48.437500)">
                                <mask id="mask-6" fill="white">
                                    <use xlink:href="#path-5"></use>
                                </mask>
                                <g id="Clip-25"></g>
                                <path d="M39.2598882,33.1786719 C37.4503187,36.2997656 33.9488882,37.9575781 30.3540757,37.4075781 C29.9891799,37.3544531 29.6376243,37.5552344 29.5034368,37.8958594 C28.1803951,41.2786719 24.985791,43.4638281 21.3642979,43.4638281 C17.7459437,43.4638281 14.5544785,41.2810156 13.233791,37.9028906 C13.1152979,37.5989844 12.8225965,37.4044531 12.5032146,37.4044531 C12.4639785,37.4044531 12.4239576,37.4075781 12.3831521,37.4138281 C8.77578403,37.9661719 5.28063125,36.3036719 3.47341597,33.1786719 C1.66306181,30.0575781 1.96517986,26.2122656 4.24401319,23.3817969 C4.47393681,23.0966406 4.47393681,22.6896094 4.24322847,22.4044531 C1.96439514,19.5778906 1.66149236,15.7325781 3.47341597,12.6075781 C5.28063125,9.48648437 8.77813819,7.82867187 12.3784437,8.37867187 C12.7433396,8.43257812 13.0964646,8.23101562 13.2298674,7.88960937 C14.5482007,4.50835937 17.7412354,2.32320312 21.3642979,2.32320312 C24.9873604,2.32320312 28.1803951,4.50679687 29.4995132,7.88492187 C29.6321312,8.22632812 29.991534,8.42789062 30.3501521,8.37398437 C33.9512424,7.82476562 37.4463951,9.48335937 39.2598882,12.6083594 C41.0710271,15.7310156 40.7665549,19.5763281 38.4853674,22.4044531 C38.254659,22.6903906 38.254659,23.0974219 38.4853674,23.3833594 C40.768909,26.2083594 41.0733812,30.0536719 39.2598882,33.1786719 L39.2598882,33.1786719 Z M34.8772146,66.3005469 L21.8673049,55.5060156 C21.5761729,55.2653906 21.1532076,55.2653906 20.8620757,55.5060156 L7.85138125,66.3005469 L7.85138125,38.5841406 C9.16579097,39.0060156 10.5751521,39.1700781 12.010409,39.0333594 C13.691284,42.6942969 17.2994368,45.0263281 21.3642979,45.0263281 C25.4322979,45.0263281 29.0428049,42.6919531 30.726034,39.0278906 C32.1581521,39.1630469 33.565159,38.9982031 34.8772146,38.5794531 L34.8772146,66.3005469 Z M40.0807076,22.8927344 C42.4270271,19.6138281 42.6530271,15.3341406 40.6190271,11.8271094 C38.5826729,8.31617187 34.7438118,6.36773437 30.7228951,6.75367187 C29.0428049,3.09273437 25.4338674,0.760703125 21.3642979,0.760703125 C17.2947285,0.760703125 13.6850062,3.09507812 12.0064854,6.75835937 C7.97615208,6.37398437 4.14513819,8.32007812 2.11427708,11.8271094 C0.0787076389,15.3364844 0.303138194,19.6153906 2.64867292,22.8935156 C0.303922917,26.1747656 0.0802770833,30.4544531 2.11427708,33.9591406 C3.12264514,35.7021094 4.57908958,37.0599219 6.28193681,37.9380469 L6.28193681,67.9685156 C6.28193681,68.2716406 6.45771458,68.5474219 6.73393681,68.6763281 C6.83987431,68.7255469 6.95287431,68.7502483 7.06665903,68.7502483 C7.24636042,68.7502483 7.42527708,68.6880469 7.56888125,68.5692969 L21.3642979,57.1232031 L35.1589299,68.5692969 C35.3927771,68.7630469 35.7192215,68.8052344 35.994659,68.6763281 C36.2700965,68.5474219 36.446659,68.2716406 36.446659,67.9685156 L36.446659,37.9357031 C38.1510757,37.0591406 39.6083049,35.7036719 40.6190271,33.9599219 C42.6553812,30.4497656 42.4293812,26.1700781 40.0807076,22.8927344 L40.0807076,22.8927344 Z" id="Fill-24" fill="#99ABC7" mask="url(#mask-6)"></path>
                            </g>
                            <path d="M67.6631444,64.9947656 C64.1538667,64.9947656 61.2990472,67.8377344 61.2990472,71.3307031 C61.2990472,74.8244531 64.1538667,77.6666406 67.6631444,77.6666406 C71.1724222,77.6666406 74.0264569,74.8244531 74.0264569,71.3307031 C74.0264569,67.8377344 71.1724222,64.9947656 67.6631444,64.9947656" id="Fill-27" fill="#F2F7FF"></path>
                            <path d="M67.6631444,77.6664844 C64.1538667,77.6664844 61.2990472,74.8242969 61.2990472,71.3313281 C61.2990472,67.8375781 64.1538667,64.9946094 67.6631444,64.9946094 C71.1724222,64.9946094 74.0264569,67.8375781 74.0264569,71.3313281 C74.0264569,74.8242969 71.1724222,77.6664844 67.6631444,77.6664844 M67.6631444,63.4321094 C63.2883181,63.4321094 59.7296028,66.9750781 59.7296028,71.3313281 C59.7296028,75.6860156 63.2883181,79.2289844 67.6631444,79.2289844 C72.0371861,79.2289844 75.5959014,75.6860156 75.5959014,71.3313281 C75.5959014,66.9750781 72.0371861,63.4321094 67.6631444,63.4321094" id="Fill-29" fill="#99ABC7"></path>
                        </g>
                    </g>
                </g>
            </g>
        </g>
    </g>
</svg>