<?xml version="1.0" encoding="UTF-8"?>
<svg width="226px" height="150px" viewBox="0 0 226 150" version="1.1" xmlns="http://www.w3.org/2000/svg" xmlns:xlink="http://www.w3.org/1999/xlink">
    <title>DB503077-4FE0-4D8F-8480-FCD50E67D6C3@1x</title>
    <g id="CMSDT-3260-Become-a-Customer" stroke="none" stroke-width="1" fill="none" fill-rule="evenodd">
        <g id="PAGE_Become-a-Customer-1440" transform="translate(-1161.000000, -973.000000)">
            <g id="Group-2" transform="translate(252.000000, 829.000000)">
                <g id="-get-your-card-makro" transform="translate(909.000000, 144.000000)">
                    <ellipse id="background" fill="#F2F5F8" cx="113" cy="75" rx="64.3472222" ry="64.0625"></ellipse>
                    <g id="image" transform="translate(113.261574, 78.125000) scale(-1, 1) translate(-113.261574, -78.125000) translate(31.127315, 17.187500)">
                        <path d="M93.2689675,35.15625 L73.9122282,67.4479167 L78.120215,65.7483553 L89.0609807,60.6496711 L101.684941,52.151864 C106.734525,48.7527412 110.66198,47.6197003 113.467304,48.7527412 C117.675291,50.4523026 118.937687,53.8514254 116.412895,58.1003289 C113.888103,62.3492325 108.838519,67.0230263 103.788934,69.9972588 C100.422545,71.9800804 96.9158893,74.8126827 93.2689675,78.4950658 C94.1105648,81.0444079 94.1105648,83.4521199 93.2689675,85.7182018 C92.4273701,87.9842836 89.902578,90.1087354 85.6945912,92.091557 C85.6945912,93.7911184 84.8529939,95.7739401 83.1697992,98.0400219 C81.4866044,100.306104 77.6994163,101.580775 71.8082348,101.864035 L71.8082348,101.864035 L66.6717222,104.55225 L66.7180223,104.6875 L58.9378704,108.984375 C60.6503086,114.901515 57.337037,118.872112 48.9980556,120.896166 C40.6590741,122.92022 29.2962963,112.699623 14.9097222,90.234375 L28.5952778,82.8125 L34.0883333,82.8125 L36.4895833,83.984375 L39.1727222,78.19625 L41.9315286,71.6968202 C45.7956369,58.8770102 48.1661872,50.7185407 49.0431795,47.2214116 L49.0851061,47.0531798 C49.9267035,43.654057 53.0125605,41.5296053 58.3426771,40.6798246 L58.3426771,40.6798246 L93.2689675,35.15625 Z" id="hand" fill="#FCFDFF" fill-rule="nonzero"></path>
                        <path d="M73.2307191,68.75 L63.5625,23.7407965 C63.5625,19.823722 65.1738698,17.559108 68.3966095,16.9469545 C71.6193492,16.334801 97.8916838,10.9563427 147.213613,0.811579652 C150.85671,0.5285029 153.238735,2.22696341 154.359688,5.90696118 C155.480641,9.58695895 158.423142,24.0238733 163.187192,49.2177041 C163.467431,53.1807787 162.06624,55.5869311 158.983619,56.4361613 C155.900998,57.2853916 138.806466,61.1069277 107.700022,67.9007697 C112.183834,64.5680076 115.126335,61.4541634 116.527526,58.5592369 C118.629313,54.2168473 116.527526,50.0669344 114.42574,49.2177041 C112.323953,48.3684739 108.540737,48.184045 104.337163,50.9161647 C101.534781,52.7375777 96.6306117,55.9929604 89.6246558,60.6823126 L81.6378661,63.6546185 L73.2307191,68.75 Z" id="card" fill="#FFFFFF" fill-rule="nonzero"></path>
                        <path d="M40.8055556,84.375 C40.9591337,84.4175017 50.7328148,87.1687553 56.2117681,92.0410645 C61.7343929,96.9522115 62.7777778,105.890763 62.7777778,105.890763 C62.7777778,105.890763 59.7524348,107.8125 59.7531626,107.8125 L59.7531626,107.8125 C59.0700676,102.400126 56.8981385,97.031719 51.9759968,92.1608754 C48.0481095,88.2748992 44.2133881,85.825188 40.8055556,84.375 Z M68.8559332,50 L72.9791667,67.96875 C72.9791667,67.96875 67.8231054,62.1862161 64.9408808,58.0196015 C63.1395822,55.4153775 65.723671,52.2420971 68.8559332,50 Z" id="shadow" fill="#E6F0FF"></path>
                        <path d="M154.767851,5.20113963 L163.87235,49.0971677 C164.594672,52.6149438 162.339401,56.0927033 158.858324,56.8292034 L113.584537,67.0182957 L107.346662,68.3362133 C107.081087,68.5299753 106.80986,68.7255293 106.532957,68.922971 C104.585244,70.3117572 97.7743045,74.7802404 97.4391012,75.1348811 C97.1871309,75.4014623 96.2984913,76.4202976 94.8936872,78.0497283 L94.8916595,78.0369474 C94.8999722,78.1099077 94.9114132,78.2381081 94.9225211,78.4165227 C95.0779466,80.9129602 94.7329836,83.8854571 93.4652554,86.7512792 C93.3764381,86.9520593 93.2834998,87.1505741 93.1863693,87.3467178 C92.5396132,88.6527803 91.3250955,89.7900184 89.7122844,90.7895646 C88.8876154,91.3006566 88.0089683,91.743593 87.1307462,92.1186089 C86.848434,92.239161 86.5842187,92.344832 86.3434561,92.435484 C86.2544623,92.7366826 86.1468518,93.0704989 86.0200267,93.4290622 C85.6529321,94.4669211 85.1998665,95.5053519 84.6539359,96.4798966 C83.683277,98.2126271 82.5243966,99.5585143 81.1397977,100.358793 C79.2015478,101.479561 76.0972396,102.079133 72.4360905,102.329413 C72.1454013,102.580983 71.857699,102.826421 71.5704171,103.067859 L71.4312038,103.161435 L61.4738946,108.406185 L60.4314879,109.211086 L60.4202039,109.21952 C60.3407568,113.117569 58.8943129,116.809332 57.5006786,117.163259 C57.080736,117.269907 56.6534654,117.017439 56.5463429,116.599354 C56.4392204,116.18127 56.6928112,115.75589 57.1127538,115.649241 C57.0396204,115.667814 57.0312693,115.673304 57.0506829,115.654528 C57.1192719,115.588193 57.2059082,115.481443 57.3007315,115.341191 C57.5308257,115.000862 57.7726667,114.52022 57.9905678,113.949106 C58.5321932,112.529515 58.8574805,110.767827 58.8541412,108.85864 C58.8520882,107.684853 58.7313874,106.498237 58.484949,105.304661 C57.3179314,100.948742 55.0878703,96.950203 51.6540961,93.5292335 C49.8211472,91.7034209 47.9854098,90.1110512 46.1447947,88.7663349 C43.2447917,86.7464826 40.3062741,85.358469 37.3753151,84.5191931 C34.1751982,83.6028443 31.3855413,83.4370344 29.2049054,83.697708 C28.9669249,83.7261562 28.7883608,83.7538794 28.6727951,83.7751453 L1.14906074,98.1396976 C0.765214333,98.3400259 0.290925427,98.1926319 0.0897068195,97.8104839 C-0.111511788,97.4283359 0.0365372959,96.9561456 0.420383704,96.7558174 L28.0430767,82.3396189 C28.1040193,82.3078131 28.168899,82.2841255 28.2360468,82.2691655 C28.3841121,82.2361778 28.6474618,82.1906218 29.0178038,82.146351 C30.9189755,81.9190846 33.2158845,81.9872442 35.803716,82.5225191 C38.1703329,77.9758362 41.7053991,68.690778 43.5397762,62.1834391 L43.6649711,61.7356083 C43.9551024,60.6890151 44.2392849,59.6014272 44.6851345,57.8551829 C44.7734868,57.5089932 44.7734868,57.5089932 44.8618305,57.1627487 C46.1220613,52.2249533 46.7822382,49.943613 47.7217276,47.6518536 C48.9974231,44.5399643 50.4602768,42.5906979 52.3761364,41.8362989 C54.2407423,41.1022432 58.5008078,40.029746 65.8703371,38.3676646 L62.9124671,23.9839607 C62.1900804,20.4658702 64.4435479,16.9884124 67.9402043,16.24816 L147.101182,0.139180114 C150.597691,-0.600543943 154.042142,1.67925867 154.767851,5.20113963 Z M66.1858403,39.8978096 L66.5146131,39.8245094 C59.0709178,41.5003423 54.7317583,42.5891649 52.953312,43.2893014 C50.3180569,44.3269734 48.8317966,47.9525076 46.3829394,57.5475402 C46.2946426,57.8936009 46.2946426,57.8936009 46.2062081,58.2401128 C45.6936477,60.2476412 45.3927538,61.3926082 45.0508461,62.6056189 C43.2350846,69.0469203 39.7944654,78.1269029 37.3741137,82.8995392 C37.5183303,82.935541 37.6633538,82.975827 37.8091331,83.0175707 C42.7508301,84.4326184 47.6900233,87.3142766 52.4138689,91.9869691 C56.651707,96.179784 59.0990682,100.584761 60.0107671,104.936139 C60.2071924,105.671477 60.3746624,106.41655 60.5140177,107.169992 L60.5658281,107.129981 L60.6797808,107.056759 L70.6223922,101.819751 C71.6385091,100.963818 72.662776,100.054497 73.7465078,99.0501841 C74.9009575,97.9803357 76.0981356,96.8273065 77.6199623,95.3279747 C77.9661166,94.9869371 78.7532401,94.206802 79.5634617,93.4033629 L80.0051798,92.9653114 C80.6703095,92.3056684 81.2993224,91.6817434 81.6563412,91.3282412 C81.669192,91.1768264 81.7294727,91.0268357 81.8367967,90.9008741 C81.8649234,90.867863 81.8649234,90.867863 81.9984274,90.7112114 C82.1811242,90.4968605 82.1811242,90.4968605 82.4552151,90.1753531 C82.9471935,89.5983019 83.4956041,88.9553085 84.0864643,88.2628566 C85.7746543,86.2844015 87.4648296,84.3059369 89.0451488,82.4593067 L89.0930261,82.4033622 C93.1921808,77.6136156 95.8021296,74.5867523 96.2961363,74.0640997 C96.5584778,73.7865459 98.7663727,72.2898675 101.011845,70.7785052 L101.550503,70.416113 C103.252352,69.2715504 104.887741,68.1741611 105.619116,67.6526655 C107.605021,66.2366475 109.28609,64.9248775 110.666032,63.6870427 C111.048788,63.3437037 111.40611,63.0079062 111.737268,62.6797944 C116.564764,57.8964926 117.798195,55.1414489 116.26117,52.049061 C116.542858,52.8555429 116.612216,53.7762714 116.383379,54.7679151 C115.961788,56.5950082 115.124281,58.0642623 113.992708,59.2196627 C113.226041,60.0024731 112.482963,60.5090326 111.673702,60.9275446 C110.374202,61.5990106 109.290784,61.5077971 108.428735,60.1695487 C108.376556,60.088635 108.323531,60.0049049 108.267213,59.9146607 C108.213743,59.8289808 108.159396,59.7408331 108.090302,59.6279705 C106.942351,57.7528367 106.284693,56.9082892 104.41248,55.2142051 L104.358933,55.154716 C104.304225,55.0797391 104.231813,54.9574513 104.161524,54.7940073 C103.826159,54.0141802 103.895851,53.1466782 104.63955,52.3607762 C104.722565,52.273051 104.813442,52.1873742 104.912309,52.1038134 C106.371342,50.8706624 107.93224,49.8645993 109.421449,49.2980185 C108.487932,49.5314317 107.511665,49.9267319 106.520288,50.4893626 C105.019019,51.341428 102.308494,53.0337116 98.7460248,55.3246415 C98.5588646,55.445031 98.5588646,55.445031 98.3717893,55.5654893 C96.4304745,56.8158188 94.3722339,58.1557171 92.3287019,59.4956504 C91.613426,59.9646531 90.9511024,60.4001452 90.3581675,60.790946 C90.1506772,60.9277019 90.0279979,61.0086462 89.8082732,61.1537262 C89.7624464,61.1840049 89.729713,61.2056325 89.7055503,61.221598 L89.6272407,61.2733579 C89.6232554,61.2759945 89.6191514,61.27871 89.6143634,61.2818781 C89.5635258,61.3155157 89.5089196,61.3431331 89.4516524,61.3641699 L85.0313535,62.9879467 C83.8037458,63.439082 82.2192101,64.2555064 80.0372839,65.5180911 C79.743489,65.6880972 79.4365118,65.8674633 79.101275,66.0647909 C78.8504318,66.2124426 76.6660452,67.5090659 76.0759163,67.852621 C74.993691,68.4826598 74.2098637,68.9122686 73.5784283,69.2114034 C73.2024899,69.3894996 72.7522841,69.244308 72.5526391,68.8805859 C72.4892635,68.7651254 72.3899307,68.5884817 72.2871015,68.4139622 C72.2709645,68.3866243 72.2709645,68.3866243 72.25488,68.3595873 C72.2367242,68.3291325 72.2192414,68.3001886 72.2027286,68.2731787 C72.1356775,68.1975051 72.0545674,68.1053729 71.9614517,67.999271 C71.6202568,67.6104916 71.2402245,67.1732576 70.8310298,66.6971949 C69.661691,65.3367702 68.4922306,63.936993 67.399736,62.5743938 C67.0740897,62.168236 66.7595546,61.7706061 66.4573607,61.3827167 C65.6261559,60.3158005 64.8990204,59.3364926 64.2945758,58.4626926 C62.3963998,55.7184085 64.2502271,52.4108916 68.1667546,49.5332626 L66.1858403,39.8978096 Z M93.3852165,79.8035711 L93.2113553,80.0054601 C92.3468227,81.0122658 91.367456,82.1549911 90.2876489,83.4167152 L90.2397911,83.4726368 C88.6600184,85.3186283 86.9703119,87.2965442 85.2825741,89.2744694 C84.6918596,89.9667507 84.1435879,90.609581 83.6517444,91.1864741 C83.3777413,91.5078785 83.3777413,91.5078785 83.1951245,91.7221355 L83.1792877,91.7425505 C83.1686953,91.9283985 83.0917411,92.1111497 82.9485729,92.2525899 C82.642939,92.5545349 81.7762602,93.4143489 80.8912463,94.2920198 L80.449724,94.7298433 C79.7196822,95.4536956 79.0397213,96.1274471 78.7239095,96.4385907 C77.1916698,97.9481815 75.9838162,99.1114926 74.8158342,100.193882 L74.3971082,100.580531 C76.9221735,100.283469 79.031954,99.7707 80.3516877,99.0075809 C81.4540981,98.3704034 82.4379447,97.2277949 83.2832511,95.7188323 C83.7817468,94.8289639 84.2002244,93.8698093 84.5396832,92.9100827 C84.6585408,92.5740455 84.7588167,92.2625683 84.8408766,91.9841232 C84.8892691,91.8199178 84.9203306,91.705346 84.9344856,91.6488301 C84.9995133,91.3891973 85.1934853,91.1807594 85.4485575,91.0964201 C85.4959343,91.0807551 85.5923813,91.0470061 85.73078,90.9955288 C85.9656808,90.9081576 86.2285055,90.8037202 86.5120932,90.6826234 C87.32216,90.3367111 88.1318017,89.9285611 88.8828689,89.4630841 C90.2697327,88.6035696 91.2848841,87.6530122 91.7787,86.6557978 C91.8657729,86.4799643 91.949165,86.3018402 92.0289332,86.1215164 C92.9688519,83.9967393 93.3530146,81.7807792 93.3852165,79.8035711 Z M147.421443,1.66879052 L68.2605755,17.7777471 C65.6178228,18.3372445 63.8994065,20.9890333 64.4500592,23.6707632 L73.4152113,67.2583309 L73.4674872,67.3391495 C73.5076315,67.3844849 73.5405947,67.4215875 73.5660171,67.4500987 L73.5748403,67.4618096 L73.7598018,67.363867 C74.1874992,67.1336603 74.6878288,66.8506896 75.2836799,66.5038031 C75.5058621,66.3744554 75.9597258,66.1066181 76.4506584,65.8162494 L77.0083332,65.486194 C77.6225417,65.1224929 78.1806395,64.7915304 78.3025236,64.7197868 C78.6409247,64.5205966 78.9512014,64.3393027 79.2486189,64.1672002 C81.5047648,62.8616679 83.1512858,62.0133059 84.4879711,61.5220856 L88.8223133,59.9298846 C88.8475798,59.9131891 88.8842279,59.888975 88.9406609,59.8516887 C89.1609827,59.7062143 89.2838915,59.6251187 89.4918062,59.488083 C90.0857429,59.0966219 90.7490991,58.6604508 91.4654561,58.1907393 C93.5123038,56.8486319 95.5739913,55.5064897 97.5193103,54.2535813 C97.7068391,54.132831 97.7068391,54.132831 97.8944697,54.0121389 C101.481696,51.7052885 104.207855,50.0032439 105.743026,49.131937 C110.476962,46.4453114 115.250807,47.0657773 117.415094,50.8813644 C119.710395,54.928128 118.322,58.3598101 112.844375,63.7872891 C112.494166,64.1342761 112.118042,64.4877427 111.716583,64.8478588 C111.246951,65.2691285 110.745422,65.6972785 110.211659,66.1336459 L113.248609,65.4920427 L158.522164,55.3029995 C161.165399,54.7437131 162.885295,52.0915326 162.335019,49.4116291 L153.230629,5.5161295 C152.678763,2.83791775 150.066848,1.10915087 147.421443,1.66879052 Z M65.587168,57.5764846 C66.1730253,58.4234143 66.8831578,59.3798225 67.6974978,60.4250914 C67.9950784,60.8070593 68.3051114,61.1989977 68.6263276,61.5996302 C69.4875739,62.6738081 70.3985489,63.7729725 71.3196648,64.8575866 L68.5163103,51.2351265 C65.6260289,53.530184 64.4246419,55.8957648 65.587168,57.5764846 Z M111.0637,49.6471018 C109.324916,49.937744 107.285419,51.1229076 105.420164,52.6993899 C105.343234,52.7644104 105.273508,52.8301462 105.210718,52.8964998 C104.704096,53.4318709 104.660852,53.9701645 104.882908,54.4865152 C104.917805,54.567662 104.951444,54.6295834 104.975288,54.6677782 C106.883481,56.3976347 107.58371,57.2993391 108.760375,59.2213764 C108.828401,59.3324946 108.881663,59.4188833 108.933761,59.5023643 C108.988133,59.5894901 109.039117,59.6699973 109.089184,59.747636 C109.693906,60.6864092 110.3328,60.740198 111.312091,60.234188 C112.05322,59.8509105 112.730971,59.3888846 113.430859,58.6742594 C114.464922,57.6184221 115.230305,56.2756962 115.61858,54.5929923 C116.332348,51.4999437 113.581412,49.2261877 111.0637,49.6471018 Z" id="outlines" fill="#99ABC7"></path>
                        <path d="M90.3196522,47.3167019 L91.3331736,38.7447907 L92.9749049,46.7697361 L96.937904,45.95364 L94.3238572,33.1772014 L88.973953,34.2791126 L87.7048824,41.1977944 L83.8221264,35.3400376 L78.4722222,36.4423114 L81.0855462,49.21875 L85.0489067,48.4026539 L83.4071754,40.3773457 L87.7236781,47.8516983 L90.3196522,47.3167019 Z M131.893913,33.5769072 C133.10985,33.2225401 134.168914,32.120629 133.884087,30.7285503 L133.295638,27.8537156 L133.238889,27.5744293 C132.800805,26.1642152 131.569326,25.6074563 130.277483,25.7666857 L120.08299,27.8667731 L122.697398,40.6472015 L126.660036,39.8311053 L125.644346,34.8641628 L127.221738,34.5391752 L130.813161,38.9754739 L135.370754,38.036782 L131.28739,33.7016792 L131.893913,33.5769072 Z M130.118082,30.4887994 C130.17483,30.7655466 130.156034,31.0219822 129.663732,31.1235408 L125.072162,32.0691242 L124.559617,29.5613514 L129.156248,28.6146799 C129.71542,28.4993383 129.786627,28.8689392 129.833616,29.098897 L130.118082,30.4887994 Z M106.727929,33.2435772 L106.213216,30.7281876 L95.9092014,32.8504003 L98.5228868,45.6268388 L108.962809,43.4734331 L108.452795,40.9602197 L101.981655,42.2931767 L101.422484,39.5565343 L107.752294,38.252594 L107.239388,35.7437331 L100.909217,37.0476734 L100.397757,34.5475175 L106.727929,33.2435772 Z M111.681678,32.2232757 L107.916756,32.9987484 L107.402043,30.482996 L118.894885,28.1155918 L119.409237,30.6313442 L115.644315,31.4068169 L117.743288,41.6678657 L113.780289,42.4839619 L111.681678,32.2232757 Z M145.248613,22.6872829 L136.82742,24.4217593 C135.582929,24.7855568 134.646397,25.6520695 134.799654,27.1279341 L136.490182,35.3926304 C136.928989,36.8100988 138.154324,37.3563391 139.440744,37.1985605 L147.862298,35.4637215 C149.106428,35.099924 150.018381,34.1137171 149.865123,32.6378526 L148.174596,24.3731562 C147.735789,22.9556879 146.534672,22.5295043 145.248613,22.6872829 L145.248613,22.6872829 Z M145.74453,32.6835539 C145.755735,32.830814 145.779591,33.2200011 145.300662,33.3698001 L141.008739,34.2537229 C140.509568,34.3055904 140.343299,33.9457826 140.295587,33.8057768 L138.930007,27.130473 C138.918441,26.9824876 138.923863,26.6622152 139.40243,26.5127789 L143.717848,25.6237782 C144.217018,25.5719108 144.331238,25.8678816 144.379312,26.0078875 L145.74453,32.6835539 Z" id="logo" fill="#B3C0D5" transform="translate(114.177083, 35.937500) scale(-1, 1) rotate(23.000000) translate(-114.177083, -35.937500) "></path>
                    </g>
                </g>
            </g>
        </g>
    </g>
</svg>