<?xml version="1.0" encoding="UTF-8"?>
<svg width="226px" height="150px" viewBox="0 0 226 150" version="1.1" xmlns="http://www.w3.org/2000/svg" xmlns:xlink="http://www.w3.org/1999/xlink">
    <title>EC006FE5-233B-4F10-AFB2-456C9CE0930A@1x</title>
    <defs>
        <polygon id="path-1" points="0.351555556 0.1984375 29.3260896 0.1984375 29.3260896 25.0820312 0.351555556 25.0820312"></polygon>
        <path d="M14.8383125,0.1984375 C6.84984028,0.1984375 0.351555556,6.6828125 0.351555556,14.653125 L0.351555556,14.653125 C0.351555556,18.7523437 2.076375,22.4476562 4.83153472,25.0820312 L4.83153472,25.0820312 L4.83467361,25.0820312 L11.3965208,22.7726562 L11.3965208,19.671875 C9.44727083,18.265625 8.24036806,15.740625 8.24036806,13.0421875 L8.24036806,13.0421875 C8.24036806,8.7484375 11.21525,5.25703125 14.8720556,5.25703125 L14.8720556,5.25703125 C18.5296458,5.25703125 21.5037431,8.7484375 21.5037431,13.0421875 L21.5037431,13.0421875 C21.5037431,15.7398437 20.2991944,18.2632812 18.3468056,19.671875 L18.3468056,19.671875 L18.3468056,22.7710937 L24.8631389,25.0640625 C27.6065278,22.4328125 29.3266389,18.7421875 29.3266389,14.653125 L29.3266389,14.653125 C29.3266389,6.6828125 22.826,0.1984375 14.8383125,0.1984375 Z" id="path-3"></path>
        <path d="M0.351555556,14.653125 C0.351555556,18.7523437 2.076375,22.4476562 4.83153472,25.0820312 L4.83153472,25.0820312 L4.83467361,25.0820312 L11.3965208,22.7726562 L11.3965208,19.671875 C9.44727083,18.265625 8.24036806,15.740625 8.24036806,13.0421875 L8.24036806,13.0421875 C8.24036806,8.7484375 11.21525,5.25703125 14.8720556,5.25703125 L14.8720556,5.25703125 C18.5296458,5.25703125 21.5037431,8.7484375 21.5037431,13.0421875 L21.5037431,13.0421875 C21.5037431,15.7398437 20.2991944,18.2632812 18.3468056,19.671875 L18.3468056,19.671875 L18.3468056,22.7710937 L24.8631389,25.0640625 C27.6065278,22.4328125 29.3266389,18.7421875 29.3266389,14.653125 L29.3266389,14.653125 C29.3266389,6.6828125 22.826,0.1984375 14.8383125,0.1984375 L14.8383125,0.1984375 C6.84984028,0.1984375 0.351555556,6.6828125 0.351555556,14.653125 L0.351555556,14.653125 Z" id="path-5"></path>
    </defs>
    <g id="CMSDT-3260-Become-a-Customer" stroke="none" stroke-width="1" fill="none" fill-rule="evenodd">
        <g id="PAGE_Become-a-Customer-1440" transform="translate(-534.000000, -973.000000)">
            <g id="Group-2" transform="translate(252.000000, 829.000000)">
                <g id="online-account-2" transform="translate(282.000000, 144.000000)">
                    <g id="Group-26" transform="translate(51.006944, 22.656250)">
                        <g id="Group-7" transform="translate(0.000000, 0.570312)">
                            <path d="M5.98860764,69.2100781 L123.313212,69.2100781 M5.98860764,69.0186719 L5.98860764,8.03898438 C5.98860764,3.71710938 9.41627431,0.213984375 13.6396493,0.213984375 L115.66217,0.213984375 C119.891038,0.213984375 123.313212,3.71710938 123.313212,8.03898438 L123.313212,69.0186719" id="Fill-1" fill="#F2F7FF"></path>
                            <path d="M110.549783,92.7005469 L8.52804722,92.7005469 C4.7417625,92.7005469 1.66094306,89.5403906 1.66094306,85.6560156 L1.66094306,74.5497656 L117.416103,74.5497656 L117.416103,85.6560156 C117.416103,89.5403906 114.336068,92.7005469 110.549783,92.7005469 M8.52804722,5.55289063 L110.549783,5.55289063 C114.336068,5.55289063 117.416103,8.71304688 117.416103,12.5974219 L117.416103,72.9872656 L1.66094306,72.9872656 L1.66094306,12.5974219 C1.66094306,8.71304688 4.7417625,5.55289063 8.52804722,5.55289063 M110.549783,3.99039063 L8.52804722,3.99039063 C3.87621389,3.99039063 0.0914986111,7.85132813 0.0914986111,12.5974219 L0.0914986111,85.6560156 C0.0914986111,90.4021094 3.87621389,94.2630469 8.52804722,94.2630469 L58.7541931,94.2630469 L58.7541931,102.557578 L23.8309153,102.557578 C23.3977486,102.557578 23.0461931,102.906797 23.0461931,103.338828 C23.0461931,103.770078 23.3977486,104.120078 23.8309153,104.120078 L95.2469153,104.120078 C95.6800819,104.120078 96.0316375,103.770078 96.0316375,103.338828 C96.0316375,102.906797 95.6800819,102.557578 95.2469153,102.557578 L60.3236375,102.557578 L60.3236375,94.2630469 L110.549783,94.2630469 C115.201617,94.2630469 118.985547,90.4021094 118.985547,85.6560156 L118.985547,12.5974219 C118.985547,7.85132813 115.201617,3.99039063 110.549783,3.99039063" id="Fill-3" fill="#99ABC7"></path>
                            <path d="M59.5386014,79.1271094 C56.9647125,79.1271094 54.8828444,81.1388281 54.8828444,83.6247656 C54.8828444,86.1114844 56.9647125,88.1232031 59.5386014,88.1232031 C62.1124903,88.1232031 64.1943583,86.1114844 64.1943583,83.6247656 C64.1943583,81.1388281 62.1124903,79.1271094 59.5386014,79.1271094" id="Fill-5" fill="#99ABC7"></path>
                        </g>
                        <g id="Group-10" transform="translate(14.125000, 28.695312)">
                            <mask id="mask-2" fill="white">
                                <use xlink:href="#path-1"></use>
                            </mask>
                            <g id="Clip-9"></g>
                            <path d="M14.8385479,0.198359375 C6.85007569,0.198359375 0.35100625,6.68273437 0.35100625,14.6530469 C0.35100625,18.7522656 2.07739514,22.4475781 4.83255486,25.0827344 L11.3967563,22.7733594 L11.3967563,19.6725781 C9.44672153,18.2655469 8.24060347,15.7413281 8.24060347,13.0421094 C8.24060347,8.74835937 11.2154854,5.25617187 14.872291,5.25617187 C18.5298812,5.25617187 21.5039785,8.74835937 21.5039785,13.0421094 C21.5039785,15.7397656 20.2994299,18.2632031 18.347041,19.6725781 L18.347041,22.7710156 L24.8625896,25.0639844 C27.6067632,22.4319531 29.3260896,18.7428906 29.3260896,14.6530469 C29.3260896,6.68273437 22.8262354,0.198359375 14.8385479,0.198359375" id="Fill-8" fill="#99ABC7" mask="url(#mask-2)"></path>
                        </g>
                        <g id="Group-13" transform="translate(14.125000, 28.695312)">
                            <mask id="mask-4" fill="white">
                                <use xlink:href="#path-3"></use>
                            </mask>
                            <g id="Clip-12"></g>
                            <polygon id="Fill-11" fill="#99ABC7" mask="url(#mask-4)" points="0.350770833 25.49375 29.3258542 25.49375 29.3258542 0.19765625 0.350770833 0.19765625"></polygon>
                        </g>
                        <g id="Group-16" transform="translate(14.125000, 28.695312)">
                            <mask id="mask-6" fill="white">
                                <use xlink:href="#path-5"></use>
                            </mask>
                            <g id="Clip-15"></g>
                            <polygon id="Fill-14" fill="#99ABC7" mask="url(#mask-6)" points="-4.17629167 29.5992187 33.8537014 29.5992187 33.8537014 -4.31875 -4.17629167 -4.31875"></polygon>
                        </g>
                        <g id="Group-25" transform="translate(52.576389, 17.757812)" fill="#99ABC7">
                            <path d="M54.2141042,22.3049219 L1.55688889,22.3049219 C1.12372222,22.3049219 0.772166667,21.9549219 0.772166667,21.5236719 C0.772166667,21.0924219 1.12372222,20.7424219 1.55688889,20.7424219 L54.2141042,20.7424219 C54.6472708,20.7424219 54.9988264,21.0924219 54.9988264,21.5236719 C54.9988264,21.9549219 54.6472708,22.3049219 54.2141042,22.3049219" id="Fill-17"></path>
                            <path d="M4.13140556,1.7665625 C2.833475,1.7665625 1.77723889,2.818125 1.77723889,4.1103125 L1.77723889,7.48140625 C1.77723889,8.774375 2.833475,9.82515625 4.13140556,9.82515625 L52.1595444,9.82515625 C53.457475,9.82515625 54.5137111,8.774375 54.5137111,7.48140625 L54.5137111,4.1103125 C54.5137111,2.818125 53.457475,1.7665625 52.1595444,1.7665625 L4.13140556,1.7665625 Z M52.1595444,11.3876562 L4.13140556,11.3876562 C1.96792639,11.3876562 0.207794444,9.6353125 0.207794444,7.48140625 L0.207794444,4.1103125 C0.207794444,1.95640625 1.96792639,0.2040625 4.13140556,0.2040625 L52.1595444,0.2040625 C54.3230236,0.2040625 56.0831556,1.95640625 56.0831556,4.1103125 L56.0831556,7.48140625 C56.0831556,9.6353125 54.3230236,11.3876562 52.1595444,11.3876562 L52.1595444,11.3876562 Z" id="Fill-19"></path>
                            <path d="M40.4875861,42.871875 L1.51200278,42.871875 C1.07883611,42.871875 0.727280556,42.521875 0.727280556,42.090625 C0.727280556,41.659375 1.07883611,41.309375 1.51200278,41.309375 L40.4875861,41.309375 C40.9207528,41.309375 41.2723083,41.659375 41.2723083,42.090625 C41.2723083,42.521875 40.9207528,42.871875 40.4875861,42.871875" id="Fill-21"></path>
                            <path d="M54.2141042,32.5882031 L1.55688889,32.5882031 C1.12372222,32.5882031 0.772166667,32.2382031 0.772166667,31.8069531 C0.772166667,31.3757031 1.12372222,31.0257031 1.55688889,31.0257031 L54.2141042,31.0257031 C54.6472708,31.0257031 54.9988264,31.3757031 54.9988264,31.8069531 C54.9988264,32.2382031 54.6472708,32.5882031 54.2141042,32.5882031" id="Fill-23"></path>
                        </g>
                    </g>
                </g>
            </g>
        </g>
    </g>
</svg>