<?xml version="1.0" encoding="utf-8"?>
<!-- Generator: Adobe Illustrator 17.0.0, SVG Export Plug-In . SVG Version: 6.00 Build 0)  -->
<!DOCTYPE svg PUBLIC "-//W3C//DTD SVG 1.1//EN" "http://www.w3.org/Graphics/SVG/1.1/DTD/svg11.dtd">
<svg version="1.1" id="Capa_1" xmlns="http://www.w3.org/2000/svg" xmlns:xlink="http://www.w3.org/1999/xlink" x="0px" y="0px"
	 width="2836.2px" height="2836.2px" viewBox="0 0 2836.2 2836.2" enable-background="new 0 0 2836.2 2836.2" xml:space="preserve">
<path fill="#2587BE" stroke="#2687BE" stroke-miterlimit="10" d="M782.821,541.131c21.248,0.177,33.59-6.708,46.778-10.884
	c147.718-46.763,296.971-91.019,447.254-133.598c154.368-43.736,310.361-84.609,467.977-122.506
	c132.416-31.838,266.302-60.768,401.879-86.082c54.912-10.253,110.226-19.792,166.175-27.371
	c17.973-2.434,22.221-8.952,24.981-20.639c17.837-75.524,52.726-145.137,102.532-209.214
	c55.801-71.79,129.23-129.771,229.982-164.825c82.562-28.724,170.714-41.606,266.456-28.441
	c64.491,8.869,121.372,32.392,172.46,66.452c75.225,50.151,124.011,113.303,163.385,180.862
	c43.56,74.741,70.862,152.114,89.571,230.75c1.491,6.27,3.002,12.538,4.492,18.762c9.378,2.613,13.554-2.681,18.897-5.236
	c78.922-37.736,167.872-55.792,263.729-58.905c68.048-2.211,135.948,6.57,203.924,21.064
	c125.444,26.747,236.695,77.12,341.752,138.359c14.855,8.659,26.643,11.821,44.521,8.088
	c96.612-20.162,196.396-31.005,299.669-27.692c81.63,2.618,161.297,15.399,237.949,47.555
	c39.899,16.739,80.855,31.524,117.902,52.448c99.197,56.025,178.269,126.394,247.292,203.731
	c97.928,109.723,171.909,227.506,232.543,349.536c99.104,199.453,158.036,402.875,177.954,609.795
	c11.809,122.674,3.817,243.169-28.096,360.299c-25.866,94.94-68.706,183.878-138.078,262.684
	c-71.071,80.737-163.817,141.346-286.23,174.118c-46.553,12.463-95.569,19.15-146.025,21.592
	c-41.286,1.998-82.778,2.947-124.626,1.025c-53.678-2.464-107.461-4.598-161.095-12.451c-68.131-9.977-136.408-19.588-204.104-32.19
	c-78.563-14.626-156.591-32.206-234.801-48.718c-103.459-21.842-207.104-42.703-311.579-59.111
	c-51.722-8.123-103.444-16.86-155.318-23.061c-70.939-8.481-141.834-17.374-213.053-22.631
	c-52.804-3.896-105.594-7.16-158.356-10.436c-44.525-2.765-89.025-3.417-133.434-4.093c-72.505-1.102-144.744-0.235-216.821,1.645
	c-101.857,2.658-202.749,9.649-303.124,18.329c-75.483,6.529-150.603,14.581-225.164,24.313
	c-78.87,10.294-157.507,21.138-235.478,33.842c-92.645,15.095-185.007,30.84-277.046,47.409
	c-92.069,16.575-183.731,34.001-274.964,52.441c-92.11,18.619-183.386,38.886-274.316,59.906
	c-120.479,27.851-239.499,58.432-356.501,92.403c-117.833,34.211-233.834,71.391-347.983,111.476
	c-145.326,51.034-286.891,106.844-424.465,167.932c-239.685,106.429-464.284,228.353-674.95,364.512
	c-35.02,22.634-69.212,46-104.055,68.792c-5.671,3.709-9.616,9.733-20.837,9.299c-7.978-24.822-8.396-49.777-9.605-74.573
	c-4.129-84.696-1.977-168.873,1.513-252.956c4.27-102.87,10.811-205.455,18.98-307.871c7.508-94.135,16.102-188.108,25.907-281.935
	c14.497-138.722,31.273-277.08,50.269-415.127c14.747-107.169,32.063-213.878,49.002-320.668
	c18.142-114.375,39.752-228.089,63.78-341.318c23.303-109.816,48.286-219.335,78.661-327.603
	c34.099-121.544,71.947-242.12,123.71-358.804c3.69-8.317,8.33-16.375,11.105-24.931c12.311-37.945,42.083-62.868,84.335-83.818
	c122.322-60.654,240.2-126.149,363.427-185.902c73.047-35.421,152.579-60.899,239.01-75.499
	c55.319-9.344,111.291-11.687,169.239,3.843c28.696,7.691,51.321,21.333,69.883,39.925c8.015,8.027,11.336,16.037,8.324,25.77
	c-14.169,45.77-27.555,91.743-41.294,137.625C813.71,438.429,798.717,488.215,782.821,541.131z"/>
<path fill="#516D9E" stroke="#2687BE" stroke-miterlimit="10" d="M5673.226,2019.022c-2.95,19.872-13.126,36.779-32.007,49.409
	c-30.974,20.719-73.095,12.04-93.834-18.836c-22.494-33.49-13.238-82.795,19.877-105.885c31.643-22.062,73.395-14.394,95.099,17.578
	C5675.199,1980.197,5677.834,1999.517,5673.226,2019.022z"/>
<path fill="#FFFFFF" stroke="#2687BE" stroke-miterlimit="10" d="M1632.668,568.14c-1.151-16.636-2.158-32.638-3.393-48.647
	c-1.494-19.366-1.728-19.688,21.022-24.344c110.753-22.668,222.102-43.91,334.951-61.875c78.961-12.57,158.18-24.298,238.052-34.346
	c96.615-12.155,193.82-22.312,292.307-28.117c4.482-0.265,8.875-1.065,13.382-1.045c11.16,0.051,12.978-4.961,11.519-12.342
	c-3.461-17.508-8.197-35.066-9.763-52.531c-11.07-123.462,26.85-230.882,143.563-310.198
	c59.193-40.226,131.717-56.037,216.451-39.276c44.319,8.768,81.698,29.15,116.788,52.48
	c97.575,64.873,142.076,147.802,158.622,238.901c12.351,67.998,12.461,135.899,17.999,203.843c0.625,7.671,1.59,15.353,2.488,23.894
	c14.852-1.178,22.141-9.233,30.306-15.41c76.089-57.558,170.314-90.111,278.415-103.181c45.07-5.449,91.539-3.584,138.019-0.596
	c74.41,4.784,147.89,18.63,219.565,37.602c69.154,18.303,133.366,47.254,192.013,83.711
	c49.426,30.726,93.151,65.431,130.444,104.923c4.991,5.286,10.501,10.302,16.509,16.164c14.724-6.263,24.19-15.825,35.609-23.535
	c42.505-28.704,88.44-53.011,145.681-63.999c57.396-11.017,115.763-13.197,176.935-3.338
	c155.257,25.022,280.825,90.406,385.611,185.001c141.176,127.445,233.15,272.418,300.253,426.303
	c67.609,155.043,100.801,312.021,109.173,470.512c4.524,85.662,1.414,170.462-16.515,253.306
	c-19.445,89.851-51.203,175.909-115.029,250.806c-43.002,50.463-97.698,90.886-171.997,114.504
	c-57.901,18.406-120.024,23.146-184.351,17.359c-63.052-5.671-125.39-18.179-185.89-37.259
	c-118.109-37.246-219.062-94.248-305.058-169.026c-34.187-29.727-26.199-30.129-74.309-16.603
	c-80.998,22.771-163.837,40.553-251.438,47.743c-56.049,4.601-112.768,5.677-170.245,2.752
	c-56.527-2.878-112.77-7.198-169.134-16.471c-110.527-18.184-213.209-52.671-306.611-106.483
	c-25.132-14.479-49.288-30.209-71.609-47.469c-8.051-6.225-15.789-12.889-28.561-15.526c-4.521,9.871-0.746,20.437-0.21,30.515
	c1.526,28.679,4.139,57.411,5.799,86.096c0.834,14.428-1.251,15.643-19.29,14.461c-64.698-4.24-128.508-1.214-192.638-1.07
	c-64.999,0.146-129.889,1.646-194.388,4.618c-50.996,2.35-102.108,4.363-152.745,8.676c-29.912,2.549-60.808,2.797-90.654,5.325
	c-35.408,3-70.899,6.253-106.286,9.518c-94.917,8.756-188.879,20.391-282.722,32.335c-53.4,6.796-105.694,16.765-158.885,24.214
	c-80.441,11.266-158.789,27.406-237.596,42.381c-69.285,13.166-137.057,29.699-205.907,43.873
	c-73.244,15.079-143.924,34.947-215.337,53.317c-89.748,23.085-178.792,47.543-265.622,75.791
	c-51.303,16.689-103.778,31.673-154.763,48.916c-94.133,31.836-187.472,64.765-279.443,99.72
	c-64.767,24.615-127.959,51.199-192.119,76.557c-18.962,7.494-19.743,7.171-27.944-10.124
	c-48.605-102.495-97.194-204.991-145.808-307.484c-1.281-2.701-2.79-5.353-4.927-9.432c-28.049,8.221-52.386,20.495-77.515,31.543
	c-27.13,11.929-52.586,25.892-79.922,37.546c-13.728,5.853-18.68,14.119-20.917,25.659c-8.969,46.272-18.661,92.408-28.464,138.518
	c-15.998,75.252-32.186,150.469-48.53,225.65c-4.415,20.308-10.409,40.302-14.234,60.714c-1.833,9.78-7.956,15.796-17.867,20.763
	c-116.196,58.239-228.34,120.642-340.283,183.249c-25.182,14.084-50.137,28.395-75.351,42.448
	c-7.411,4.131-15.349,7.735-26.901,13.505c3.599-31.571,6.879-59.5,9.952-87.46c9.17-83.422,18.066-166.884,27.462-250.272
	c4.505-39.981,9.853-79.838,14.898-119.74c13.48-106.621,26.641-213.293,40.658-319.832c7.326-55.686,16.107-111.143,24.377-166.68
	c25.125-168.697,52.761-336.946,84.448-504.484c21.901-115.79,46.469-231.048,73.26-345.823
	c22.996-98.516,48.702-196.483,78.255-293.478c27.705-90.929,58.704-180.985,95.447-269.396c4.97-11.96,13.126-20.888,26.548-28.354
	c85.003-47.277,175.657-88.016,268.4-126.384c37.49-15.51,73.194-33.327,113.539-45.18c27.933-8.205,56.337-14.511,87.701-14.411
	c20.802,0.066,39.629,4.757,57.781,13.718c12.849,6.343,18.11,13.408,14.121,24.916c-12.521,36.129-23.508,72.682-35.603,108.932
	c-14.951,44.817-30.266,89.535-45.698,134.22c-19.288,55.851-35.496,112.561-57.88,167.544c-7.192,17.664-6.378,35.263,4.453,53.303
	c7.427,12.372,15.044,24.689,23.467,38.49c11.695-13.118,14.606-27.397,20.819-40.313c36.327-75.507,101.399-128.481,197.905-160.49
	c130.578-43.309,261.711-85.728,393.845-126.597c79.455-24.576,161.297-44.853,248.032-55.065
	c69.407-8.172,139.397-8.928,210.839,5.78C1623.488,567.789,1627.141,567.699,1632.668,568.14z"/>
<path fill="#FCFDFE" stroke="#2687BE" stroke-miterlimit="10" d="M5661.243,2017.02c-4.866,17.724-13.971,32.161-31.378,41.899
	c-22.805,12.757-49.076,7.724-66.565-11.822c-26.899-30.063-16.545-79.078,20.403-96.574c20.176-9.555,44.831-5.21,60.705,10.813
	C5662.053,1979.149,5662.903,1998.544,5661.243,2017.02z"/>
<path fill="#D78B30" stroke="#2687BE" stroke-miterlimit="10" d="M2251.122,1883.494c-9.351-5.078-8.713-12.284-9.24-19.228
	c-16.005-210.65-32.056-421.299-47.986-631.947c-11.376-150.424-22.573-300.841-33.952-451.266
	c-0.261-3.457-1.726-6.959-2.629-10.439c-10.346-14.294-5.852-29.1-8.061-43.635c-1.973-12.984-9.252-18.599-25.363-15.348
	c-44.458,8.969-91.401,11.722-134.644,24.047c-56.317,16.053-78.967,49.287-80.533,94.554c-0.529,15.301,1.925,30.869,0.065,46.064
	c-1.013,8.274-2.688,16.458-7.508,23.749c-9.578,14.484-32.43,24.623-49.506,21.245c-24.968-4.94-31.233-20.582-33.414-36.434
	c-1.964-14.274-9.003-29.682,3.291-42.343c-3.979-58.061-7.955-116.123-11.949-174.185c-0.193-2.801-0.896-5.645-0.772-8.407
	c1.059-23.749-3.263-21.041,26.318-26.836c49.346-9.666,98.968-18.777,149.188-26.017c71.201-10.265,141.508-22.746,213.621-30.933
	c73.831-8.383,147.572-17.11,221.564-25.063c75.785-8.147,152.573-12.506,228.937-18.438c39.751-3.088,80.02-4.246,120.111-6.003
	c8.421-0.369,18.759-2.661,21.664,8.17c10.892,7.615,6.08,16.97,7.472,25.426c1.874,11.38,6.727,12.782,18.787,8.119
	c12.533-4.845,24.228-12.624,41.203-8.322c48.897-15.35,97.959-30.451,146.568-46.241c11.107-3.608,16.606-2.479,18.428,7.488
	c12.079,8.182,8.409,18.536,9.228,27.854c12.823,145.902,21.686,291.667,33.482,437.536c21.551,266.495,40.57,532.9,60.279,799.331
	c0.571,7.712,1.074,15.419,1.236,23.115c0.28,13.322-7.567,20.817-25.287,20.461c-83.729-1.681-166.27,3.403-249.324,5.558
	c-9.639,0.251-19.947,1.707-29.035-4.406c-9.672-3.881-8.8-10.63-9.264-16.767c-8.115-107.047-16.067-214.089-24.166-321.135
	c-10.901-144.109-21.917-288.224-32.844-432.336c-5.621-74.139-11.118-148.275-16.799-222.416
	c-0.481-6.28-1.924-12.595-2.919-18.892c-9.094-27.669-18.86-55.233-31.743-82.329c-29.694-62.457-85.772-80.847-143.131-72.535
	c-18.197,2.637-37.652,2.059-56.264,4.119c-36.706,4.065-38.725,5.214-36.406,33.716c5.019,61.698,8.492,123.333,13.228,185.016
	c9.685,126.182,19.026,252.351,28.981,378.543c14.491,183.687,28.577,367.358,40.401,550.946
	c2.458,38.172-0.082,40.963-49.175,44.402c-66.281,4.644-131.031,13.953-196.295,21.746
	C2288.95,1884.946,2270.786,1890.22,2251.122,1883.494z"/>
<path fill="#D78B30" stroke="#2687BE" stroke-miterlimit="10" d="M946.52,2079.665c-2.968-45.455-5.589-90.897-8.968-136.367
	c-11.295-151.914-22.814-303.835-34.336-455.757c-9.716-128.115-19.496-256.231-29.487-384.355
	c-0.596-7.634-3.305-15.34-5.03-23.014c-5.846-14.272-11.061-28.642-16.61-42.954c-12.749-32.879-34.018-41.988-74.757-33.178
	c-10.207,2.208-19.117,6.683-29.53,8.379c-9.047,1.473-18.487,5.768-27.729-2.163c-24.942-19.259-23.768-55.694,3.088-71.94
	c16.271-9.842,35.598-16.167,54.634-22.753c112.411-38.891,225.866-76.224,341.072-110.804
	c65.668-19.711,132.673-37.286,199.532-55.015c20.488-5.431,42.143-8.861,64.383-10.751c11.128-0.946,23.927,0.325,32.384-6.752
	c48.205-3.598,96.693-7.686,146.032,1.784c127.765,24.521,227.071,84.602,257.069,195.47
	c15.023,55.52,16.114,110.047,10.979,165.266c-11.391,122.511-82.017,217.39-191.565,295.643
	c-18.917,13.512-41.028,24.437-62.42,35.729c-14.666,7.741-15.037,15.569-5.552,27.938c47.398,61.806,94.939,123.56,142.637,185.243
	c68.623,88.744,136.612,177.732,203.492,267.157c20.458,27.352,17.08,34.217-20.278,40.64
	c-86.725,14.911-170.072,36.806-255.724,53.921c-32.417,6.478-39.539,4.124-58.397-19.636
	c-75.952-95.694-153.06-190.902-229.532-286.376c-31.477-39.301-64.271-78.04-94.843-117.72c-2.915-3.784-5.647-7.679-9.203-11.139
	c-5.721-5.568-9.887-14.971-20.2-13.572c-11.422,1.55-6.732,11.269-6.545,17.704c1.338,46.187,4.912,92.487,8.794,138.782
	c9.884,117.856,17.12,235.623,27.67,353.492c2.421,27.049-9.449,42.277-40.985,51.376c-77.195,22.275-153.147,46.586-228.432,71.916
	c-28.817,9.697-39.381,3.889-41.779-21.495c-2.055-21.752-3.627-43.496-4.667-65.21
	C941.385,2092.315,939.104,2084.86,946.52,2079.665z"/>
<path fill="#D78B30" stroke="#2687BE" stroke-miterlimit="10" d="M4216.533,872.618c13.568-20.115,26.339-40.621,40.87-60.266
	c30.147-40.755,64.855-78.788,116.61-104.729c51.139-25.632,108.277-37.024,173.863-31.583
	c48.324,4.009,93.181,15.455,137.033,33.356c10.714,4.374,22.877,6.273,34.375,9.311c5.99,6.833,17.08,7.193,24.282,12.487
	l-0.276-0.262c107.346,50.094,181.089,123.017,240.536,205.432c116.939,162.123,178.59,332.833,199.888,510.072
	c13.395,111.456,13.551,221.454-13.684,328.385c-19.174,75.28-54.428,144.842-115.658,203.55
	c-93.421,89.573-245.09,93.283-386.675,45.54c-160.406-54.089-266.739-149.478-348.418-263.802
	c-70.594-98.807-114.65-203.289-139.225-311.2l0.231,0.491c-4.568-4.381,0.93-9.38-3.276-13.783l0.243,0.474
	c-4.326-4.678-0.141-9.313-1.783-13.978c-11.701-66.94-23.676-133.835-27.15-200.823c-4.475-86.314,5.949-170.241,29.877-252.234
	C4174.616,931.903,4192.571,901.342,4216.533,872.618z"/>
<path fill="#D78B30" stroke="#2687BE" stroke-miterlimit="10" d="M-144.72,2678.212c-7.525-0.99-7.813-4.261-7.152-9.167
	c2.786-20.621,9.967-40.268,13.742-60.719c10.545-57.137,23.137-113.896,35.562-170.673
	c21.577-98.596,43.857-197.045,65.408-295.647c11.833-54.135,22.402-108.529,34.2-162.671
	c24.761-113.634,49.861-227.198,75.026-340.749c9.134-41.215,19.143-82.25,28.182-123.484c4.451-20.305,6.534-41.012,4.887-62.139
	c-7.735-8.898-8.459-18.919-11.54-28.591c-7.289-22.889-25.514-31-53.486-24.036c-9.252,2.304-17.272,6.428-26.236,9.091
	c-8.682,2.58-17.685,6.881-27.486-0.75c-22.454-22.792-17.288-44.04-1.914-64.271c7.923-10.424,19.913-18.26,31.545-26.163
	c52.906-35.944,105.772-71.92,158.889-107.683c27.172-18.294,54.878-36.131,82.238-54.263c3.191-2.115,5.722-4.803,8.558-7.226
	c28.714-26.415,62.879-47.909,102.336-64.624c5.217-3.025,10.473-6.013,15.641-9.084c5.838-3.468,11.241-7.727,20.372-4.532
	c14.355,6.288,15.984,17.826,20.606,27.601c103.401,218.697,208.389,437.063,311.247,655.87
	c66.441,141.339,132.568,282.741,200.078,423.855c7.841,16.39,2.013,24.752-16.056,31.112
	c-87.349,30.747-173.738,62.821-258.979,96.481c-23.871,9.427-34.742,5.203-45.742-16.307
	c-47.894-93.653-88.862-188.777-135.936-282.609c-13.287-26.486-14.23-26.721-42.987-14.353
	c-113.034,48.616-222.659,101.185-332.988,152.947c-15.113,7.09-23.747,16.338-26.325,30.369
	c-12.881,70.149-22.734,141.045-41.254,209.909c-18.588,69.12-28.558,139.751-43.975,209.378
	c-2.736,12.355-10.452,21.601-23.434,27.713c-34.819,16.389-66.885,35.605-100.495,53.227
	C-135.831,2677.933-139.819,2679.202-144.72,2678.212z"/>
<path fill="#D78B30" stroke="#2687BE" stroke-miterlimit="10" d="M3129.115,1030.041c2.071-20.639,4.212-41.27,6.202-61.921
	c10.087-104.647,41.647-203.181,109.802-290.421c49.257-63.049,116.662-110.692,210.285-135.302
	c59.904-15.746,122.459-19.234,187.237-15.507c63.063,3.629,125.152,14.818,186.776,29.679c8.998,2.17,17.278,5.522,26.037,7.943
	c111.636,26.49,195.391,80.195,252.72,159.974c35.903,49.963,47.457,102.908,53.95,156.548c1.619,13.374-3.538,21.291-23.637,19.479
	c-83.925-7.563-166.9-24.035-250.421-35.312c-5.521-0.746-10.559-2.937-14.492-6.459c-4.362-9.907-0.642-20.406-7.735-30.115
	c-6.085-20.139-14.284-39.999-21.931-59.906c-37.248-96.981-163.745-133.561-254.585-111.679
	c-55.042,13.26-84.234,47.762-104.18,87.015c-29.618,58.285-41.196,121.013-44.755,184.915
	c-7.764,139.323,5.206,279.628,31.283,420.222c13.033,70.264,33.763,139.516,71.583,207.146
	c47.634,85.183,124.855,144.081,237.238,175.884c12.86-0.933,25.115,3.765,37.689,5.378c100.82,12.941,196.003,6.384,283.018-27.266
	c15.334-5.93,29.424-13.52,44.919-20.729c6.032,4.704,2.239,10.634,5.492,15.352c9.994,5.983,8.557,14.255,8.813,21.566
	c1.057,30.08,5.213,60.257,6.837,90.349c1.812,33.58-0.746,36.633-42.362,45.725c-105.689,23.091-215.494,26.452-328.703,19.383
	c-77.982-4.87-153.083-20.142-225.372-44.982c-101.679-34.939-182.301-91.841-247.679-162.321
	c-89.322-96.291-135.599-202.322-160.153-313.489l0.241,0.46c-4.377-4.46,0.775-9.346-2.912-13.837l0.571-0.277
	c-18.862-22.812-17.638-48.091-21.371-72.028c-11.789-75.612-19.407-151.233-16.934-226.401
	C3122.814,1042.204,3121.773,1034.974,3129.115,1030.041z"/>
<path fill="#2587BE" stroke="#2687BE" stroke-miterlimit="10" d="M-144.72,2678.212c25.93-17.471,55.226-31.604,83.369-46.882
	c3.533-1.918,7.01-3.958,10.871-5.469c22.967-8.988,33.632-22.826,37.355-44.008c11.749-66.851,26.244-133.212,41.547-199.407
	c16.376-70.836,29.876-142.295,43.5-213.699c2.28-11.95,8.604-19.195,21.157-25.191c92.383-44.126,184.287-88.786,279.643-129.477
	c27.295-11.647,53.655-24.445,80.765-36.327c14.463-6.339,14.931-5.982,22.087,7.428c28.21,52.859,51.663,106.735,77.239,160.158
	c24.287,50.728,48.155,101.545,72.45,152.271c5.528,11.541,7.999,12.088,24.707,5.737c54.577-20.742,108.831-41.925,163.599-62.404
	c35.087-13.119,70.924-25.212,106.304-37.933c17.563-6.314,17.276-7.115,10.091-22.177
	c-33.594-70.426-66.964-140.898-100.28-211.381c-42.647-90.221-85.142-180.473-127.746-270.703
	c-36.187-76.64-72.35-153.286-108.68-229.896c-37.907-79.938-76.009-159.834-114.005-239.752
	c-25.083-52.757-50.134-105.52-75.2-158.275c15.421-9.228,28.475-20.845,46.883-26.941c9.316,5.59,9.894,13.158,13.008,19.706
	c110.834,233.048,221.648,466.099,332.103,699.225c48.159,101.643,95.511,203.454,143.323,305.168
	c1.878,3.995,4.742,7.789,7.147,11.68c2.361,28.032,4.727,56.062,7.078,84.089c0.635,7.566,0.182,15.19,5.364,23.438
	c26.987-3.064,48.423-14.771,72.43-22.15c55.152-16.952,109.915-34.522,164.81-51.882c8.883-2.809,17.125-7.362,26.532-8.466
	c27.745-3.255,29.187-17.512,27.749-36.097c-12.572-162.543-24.22-325.056-36.103-487.576c-0.564-7.704,0.079-15.42-1.36-23.083
	c-1.572-8.367,2.056-13.121,11.739-15.625c11.46-2.965,14.253,4.588,18.52,9.783c32.476,39.535,65.028,79.041,97.045,118.771
	c58.577,72.688,116.761,145.542,175.199,218.289c26.451,32.928,52.868,65.873,79.797,98.594
	c11.886,14.442,13.889,14.566,33.403,10.316c91.363-19.898,181.51-42.349,275.098-57.571c3.471-0.565,6.887-1.337,10.173-2.274
	c14.233-4.064,14.707-5.155,6.198-16.354c-23.002-30.27-46.397-60.387-69.115-90.766c-49.141-65.714-100.88-130.406-150.341-195.959
	c-40.923-54.238-84.861-107.288-123.733-162.341c-6.694-9.479-14.857-18.508-22.024-27.907c-6.091-7.988-5.211-12.405,3.384-17.081
	c18.301-9.958,36.242-20.295,53.995-30.797c71.643-42.383,125.797-95.765,163.336-159.879c18.388-31.406,32.881-64.115,39.64-98.719
	c16.043-82.147,20.613-165.119-20.132-249.231c-32.539-67.174-94.56-110.371-180.993-136.149
	c-60.326-17.993-119.636-24.19-180.159-18.469c-6.227,0.589-12.702,0.085-18.879-2.323c33.168-10.237,69.782-8.633,105.508-7.433
	c25.019,0.84,50.582,3.186,75.976,7.086c92.133,14.149,168.429,48.968,224.986,110.621c1.761,17.468,2.131,34.997,5.638,52.4
	c4.383,21.749,23.778,28.868,47.644,19.202c26.439-10.709,27.107-31.292,27.021-51.452c-0.11-25.744-0.221-50.995,8.67-75.724
	c9.267-25.779,31.554-40.452,59.936-51.594c33.539-13.168,71.831-16.832,108.664-23.324c19.653-3.464,39.831-5.694,59.452-9.224
	c11.004-1.98,15.5,1.301,16.016,9.335c1.257,19.513,5.808,39.209,2.631,58.481c-28.332,7.699-59.236,8.61-88.781,13.117
	c-20.939,3.195-41.462,6.984-60.069,14.616c-23.323,9.566-34.615,24.864-36.188,45.851c-1.712,22.853,0.998,46.126-2.948,68.771
	c-3.673,21.072-12.85,39.609-32.696,53.67c-7.631,5.407-16.604,9.371-26.722,12.158c-20.008,5.509-19.777,5.748-17.918,23.192
	c11.262,105.64-4.937,205.723-63.413,297.155c-41.057,64.196-101.67,115.421-173.338,159.245
	c-19.23,11.759-19.433,11.842-6.023,29.541c114.97,151.752,230.048,303.46,344.981,455.225
	c7.646,10.097,14.778,20.426,21.433,30.872c8.469,13.294,7.992,14.899-8.044,17.307c-34.008,5.108-67.017,12.396-100.479,18.7
	c-81.461,15.349-162.065,32.492-242.467,50.072c-1.7,0.371-3.318,0.925-5.047,1.214c-38.309,6.423-27.023,13.063-50.157-15.817
	c-99.966-124.805-199.954-249.6-300.113-374.324c-5.399-6.723-9.925-14.069-20.027-20.739c-5.545,5.166-3.772,11.561-3.355,17.171
	c10.578,142.167,21.352,284.341,32.06,426.513c0.843,11.197,0.307,22.427,2.475,33.57c2.854,14.674-3.68,21.904-21.435,26.656
	c-46.355,12.407-91.969,26.175-137.333,40.262c-119.924,37.24-238.219,76.909-354.06,120.193
	c-52.418,19.585-105.065,38.854-161.047,59.535c-55.176-112.018-106.61-223.837-160.779-335.866
	c-12.133-0.594-19.8,5.583-28.358,9.211c-102.811,43.589-203.562,89.618-303.197,136.973c-14.156,6.729-21.243,15.233-23.999,28.608
	c-26.298,127.619-55.787,254.597-79.864,382.666c-2.427,12.91-5.199,25.767-8.376,38.523c-2.517,10.112-6.684,18.908-18.859,25.119
	c-55.57,28.352-110.35,57.55-165.448,86.407c-3.483,1.824-7.253,3.347-14.472,6.65
	C-157.974,2725.174-147.59,2702.269-144.72,2678.212z"/>
<path fill="#2687BE" stroke="#2687BE" stroke-miterlimit="10" d="M4180.055,1448.911c11.521,17.054,12.104,35.544,18.002,53.292
	c22.373,67.312,53.116,132.74,90.239,197.149c34.192,59.323,76.937,114.871,129.607,166.528
	c55.394,54.326,120.284,100.29,199.247,132.595c46.734,19.119,94.87,36.423,146.161,43.698
	c75.766,10.747,149.632,10.909,213.297-19.138c47.041-22.201,82.829-53.675,110.324-90.759
	c49.718-67.057,77.249-141.081,88.227-219.871c23.774-170.623,4.032-341.964-58.388-513.878
	c-36.312-100.004-88.472-195.923-159.136-286.802c-51.791-66.607-117.625-124.426-199.985-170.732
	c-5.15-2.896-12.128-4.526-14.359-10.059c23.563,3.864,42.105,15.88,61.221,26.573c85.014,47.556,150.39,108.436,204.458,176.599
	c95.337,120.19,156.992,248.331,196.864,381.619c24.849,83.071,38.817,166.457,44.25,249.863
	c6.077,93.329,2.913,185.775-21.701,275.31c-17.946,65.279-46.832,126.686-92.947,181.588
	c-38.076,45.328-88.594,79.672-157.384,96.448c-46.791,11.41-95.742,13.148-146.789,5.24
	c-92.477-14.326-178.02-43.774-255.685-88.37c-76.615-43.993-139.211-98.485-191.084-160.021
	c-85.614-101.562-141.834-210.728-179.125-324.707c-8.62-26.348-15.705-52.875-23.34-79.334
	C4179.825,1464.116,4176.896,1456.405,4180.055,1448.911z"/>
<path fill="#2687BE" stroke="#2687BE" stroke-miterlimit="10" d="M2251.122,1883.494c55.309-6.762,110.634-13.479,165.921-20.304
	c36.851-4.549,73.991-7.97,111.566-10.04c12.088-0.666,18.909-4.518,17.926-17.021c-10.025-127.488-18.435-254.919-27.897-382.388
	c-15.446-208.094-31.323-416.203-47.06-624.308c-3.388-44.8-6.966-89.609-10.409-134.411c-0.376-4.897-0.286-9.779-0.659-14.676
	c-0.752-9.859,4.451-15.009,17.672-15.939c36.578-2.574,72.849-6.434,109.533-8.513c42.812-2.426,86.793,19.815,110.394,54.611
	c23.574,34.756,36.282,71.051,39.256,108.665c-7.933-6.243-8.503-14.309-11.501-21.74c-7.26-17.997-16.482-35.41-33.14-50.203
	c-15.105-13.413-33.517-20.547-56.134-22.071c-31.304-2.11-60.835,3.277-91.506,3.563c-11.271,0.106-13.475,5.283-12.798,13.823
	c3.883,48.999,6.496,97.954,10.154,146.946c12.282,164.499,24.924,329.011,37.236,493.511
	c11.997,160.296,23.77,320.583,35.592,480.872c0.93,12.6,0.62,25.191,2.47,37.775c1.321,8.984-2.483,12.187-13.67,13.136
	c-111.934,9.497-222.775,22.539-333.638,35.495c-18.885,2.207-19.494,2.136-20.893-13.331
	C2247.912,1918.957,2240.213,1900.28,2251.122,1883.494z"/>
<path fill="#2687BE" stroke="#2687BE" stroke-miterlimit="10" d="M3129.114,1030.041c-1.105,105.586,8.604,211.404,31.773,317.505
	c-10.904,4.203-7.781,12.527-7.231,19.951c8.174,110.415,16.58,220.839,24.612,331.25c4.321,59.405,7.522,118.77,12.472,178.193
	c0.938,11.263-2.909,14.119-16.712,14.265c-71.172,0.749-142.275,1.981-213.321,3.506c-38.664,0.83-77.175,2.552-115.745,3.924
	c-23.862,0.849-24.475,0.609-26.182-18.006c-1.155-12.589-1.099-25.155-2.579-37.742c-0.676-5.754,2.558-9.02,7.15-12.168
	c91.51-3.392,182.803-7.965,274.993-7.539c21.831,0.101,22.148,0.435,20.882-16.997c-7.111-97.931-14.2-195.862-21.604-293.804
	c-23.125-305.87-46.395-611.746-69.583-917.619c-1.857-24.496-3.51-48.984-5.259-73.482c13.386-9.929,32.061-12.674,48.778-17.916
	c12.252-3.842,15.904-1.429,16.75,9.363c3.338,42.599,6.293,85.184,9.545,127.781c9.703,127.106,19.47,254.215,29.285,381.326
	C3127.349,1024.552,3128.437,1027.303,3129.114,1030.041z"/>
<path fill="#2687BE" stroke="#2687BE" stroke-miterlimit="10" d="M3780.489,1732.227c-67.055-9.62-120.751-38.955-166.287-78.369
	c-53.233-46.076-84.582-100.125-107.656-156.977c-34.478-84.95-48.032-171.011-59.365-257.236
	c-11.614-88.359-17.894-176.503-16.731-264.296c0.888-67.009,8.864-132.998,30.776-196.301
	c10.888-31.451,26.244-61.689,52.424-87.127c35.385-34.382,81.171-52.028,143.171-45.177c22.651,2.503,44.473,5.473,66.989,11.741
	c60.307,16.789,96.514,50.598,120.159,93.512c13.553,24.598,22.272,50.4,21.865,76.634c-9.587-7.084-9.809-16.782-14.4-25.209
	c-22.51-41.323-60.498-67.646-116.608-79.505c-46.136-9.749-89.225-9.156-127.952,7.908c-35.423,15.608-53.249,42.647-67.625,71.254
	c-21.041,41.867-31.087,86.556-34.848,132.198c-13.09,158.868,3.067,318.994,35.954,479.557
	c13.664,66.71,35.862,132.385,78.686,194.482c27.554,39.954,63.464,74.632,112.883,100.404
	C3747.582,1717.887,3764.273,1724.762,3780.489,1732.227z"/>
<path fill="#2687BE" stroke="#2687BE" stroke-miterlimit="10" d="M3162.989,1361.194c10.092,11.431,9.212,24.502,12.961,36.706
	c21.842,71.099,51.84,140.315,98.02,206.32c53.936,77.091,125.092,143.259,219.307,193.674
	c30.826,16.496,64.642,29.675,100.036,39.981c51.862,15.099,103.681,29.208,157.755,33.794
	c69.821,5.92,139.361,11.233,208.661,6.677c61.857-4.066,121.857-11.754,179.981-25.36c22.438-5.252,22.637-5.011,21.121-24.085
	c-2.893-36.41-5.91-72.824-8.792-109.233c-0.389-4.902-0.298-9.788-0.43-14.691c17.171-13.894,37.316-24.986,59.367-36.907
	c5.673,15.432,4.18,29.187,5.246,42.885c4.897,62.986,8.875,125.946,14.916,188.957c1.286,13.401-5.006,18.547-19.052,22.039
	c-78.148,19.426-159.602,28.665-243.78,30.941c-56.071,1.516-112.478-0.62-168.598-6.454
	c-60.033-6.239-119.407-18.981-176.864-38.954c-57.958-20.146-112.486-44.589-161.688-76.675
	c-77.185-50.334-136.091-111.165-181.589-179.369c-58.952-88.374-95.305-180.813-117.047-275.817
	C3161.358,1370.544,3161.6,1365.879,3162.989,1361.194z"/>
<path fill="#D78B30" stroke="#2687BE" stroke-miterlimit="10" d="M2703.973,318.994c-5.824-25.133-8.871-50.312-6.047-75.015
	c4.842-42.333,42.347-107.862,114.43-120.354c18.969-3.287,38.038,2.103,56.366-0.633c65.351,10.207,95.573,49.401,114.765,91.103
	c28.295,61.479,19.981,119.93-24.411,170.467c-23.619,26.889-57.664,42.865-102.948,45.026
	C2783.956,433.03,2711.666,376.651,2703.973,318.994z"/>
<path fill="#D78B30" stroke="#2687BE" stroke-miterlimit="10" d="M179.996,1112.957c-5.627-4.931-5.501-10.403-5.063-16.068
	c4.162-53.822,7.971-107.688,12.353-161.482c5.058-62.085,10.731-124.091,15.752-186.181c0.648-8.019,2.242-14.361,12.029-18.579
	c70.252-30.276,139.312-62.02,211.313-90.135c3.06-1.196,6.057-2.624,10.004-1.286c8.48,12.357,2.452,23.328-1.224,34.388
	c-27.15,81.688-51.13,164.218-78.939,245.722c-14.358,42.082-25.548,84.981-40.767,126.825c-3.193,8.778-7.736,16.892-18.004,21.326
	c-34.071,14.713-66.782,31.076-101.875,44.539C190.834,1113.845,185.709,1114.869,179.996,1112.957z"/>
<path fill="#2687BE" stroke="#2687BE" stroke-miterlimit="10" d="M179.996,1112.957c33.081-15.81,66.386-31.385,101.443-44.775
	c15.83-6.046,24.075-15.016,28.315-28.729c26.184-84.705,53.685-169.07,80.568-253.597c15.53-48.831,30.719-97.751,46.061-146.63
	c24.451-12.219,48.973-24.344,81.6-32.713c-5.558,19.721-9.812,36.711-15.153,53.413c-16.48,51.549-33.449,102.97-50.093,154.477
	c-26.254,81.245-52.461,162.503-78.492,243.808c-2.743,8.566-4.167,17.478-6.203,26.233
	c-32.565,23.055-66.125,45.209-102.453,64.693c-32.216,6.836-56.338,24.63-88.802,34.543
	C170.258,1158.823,179.495,1136.29,179.996,1112.957z"/>
<path fill="#2688BE" stroke="#2687BE" stroke-miterlimit="10" d="M2703.973,318.994c9.913,14.122,14.472,29.691,25.516,43.568
	c17.752,22.306,39.21,41.545,70.719,52.524c44.19,15.398,84.382,11.553,118.823-8.733c68.949-40.612,81.89-99.461,66.592-166.028
	c-8.253-35.912-30.662-67.589-67.05-93.876c-8.552-6.177-16.966-11.394-28.244-14.047c-7.675-1.805-16.493-3.043-21.602-9.407
	c19.809-5.748,39.271-0.804,58.153,6.533c57.816,22.468,94.771,58.901,115.304,104.355c29.579,65.475,27.716,128.532-9.836,186.351
	c-26.195,40.333-70.599,64.705-130.923,71.18c-50.979,5.473-94.446-12.253-129.6-41.383
	c-41.566-34.445-64.292-75.717-69.547-120.874C2701.88,325.758,2703.363,322.382,2703.973,318.994z"/>
<path fill="#2688BE" stroke="#2687BE" stroke-miterlimit="10" d="M3873.571,858.744c26.377,1.941,52.605,5.464,78.877,9.492
	c62.41,9.567,124.936,18.224,187.354,27.738c12.088,1.842,16.442-0.144,15.679-9.74c-6.899-86.748-39.845-167.046-125.584-234.121
	c-47.471-37.138-102.333-65.138-164.327-83.838c-3.457-1.043-6.753-2.501-10.121-3.764c8.211-2.142,16.323,0.662,24.069,2.844
	c178.394,50.283,288.804,145.673,330.165,286.812c1.814,6.193,4.546,12.299,6.85,18.449c-6.886,15.956-12.748,32.296-20.94,47.755
	c-8.286,15.632-10.366,32.843-17.412,48.699c-25.325-3.541-50.761-6.459-75.989-10.728c-52.374-8.862-105.208-13.477-157.498-23.227
	c-17.898-3.337-36.235-4.202-54.352-6.463c-7.195-0.898-14.879-1.743-15.333-9.775
	C3873.876,898.786,3867.779,878.374,3873.571,858.744z"/>
<path fill="#2B88BE" stroke="#2687BE" stroke-miterlimit="10" d="M720.071,1010.257c13.901,1.06,25.861-2.639,37.63-6.544
	c14.51-4.816,29.703-7.813,46.148-7.773c22.747,0.056,35.981,6.235,46.266,22.73c12.349,19.804,18.406,40.406,18.579,61.51
	c-25.449-29.478-25.493-29.568-68.515-20.435c-13.54,2.875-26.554,6.877-40.199,9.493c-22.422,4.3-36.551-1.61-46.423-18.922
	c-6.162-10.806-7.557-21.98-7.596-33.204C705.936,1009.394,711.454,1008.178,720.071,1010.257z"/>
<path fill="#2A88BE" stroke="#2687BE" stroke-miterlimit="10" d="M-13.612,1408.676c11.783,2.111,20.494-2.619,29.852-5.82
	c7.074-2.42,13.787-5.401,21.008-7.568c33.283-9.982,56.053,0.249,63.524,28.719c2.518,9.594,6.102,19.273,4.363,28.95
	c-16.489-5.728-31.709-4.979-46.34,0.997c-9.093,3.714-18.558,7.065-28.313,9.799c-23.579,6.605-39.685-0.016-47.994-19.326
	c-4.085-9.493-7.24-19.099-8.094-28.865C-26.181,1408.987-21.12,1407.551-13.612,1408.676z"/>
<path fill="#3089BE" stroke="#2687BE" stroke-miterlimit="10" d="M2857.783,560.024c-19.555,8-39.891,14.803-61.796,20.801
	c-8.116-15.983-5.708-30.99-5.666-46.012c15.682-13.892,38.32-9.294,59.361-8.354c5.374,0.24,6.526,5.039,6.832,8.436
	C2857.272,543.28,2857.401,551.648,2857.783,560.024z"/>
<path fill="#2687BE" stroke="#2687BE" stroke-miterlimit="10" d="M4743.565,731.193c-10.417-1.214-19.218-4.483-24.285-12.487
	C4727.916,722.184,4738.764,722.849,4743.565,731.193z"/>
<path fill="#2687BE" stroke="#2687BE" stroke-miterlimit="10" d="M3160.319,1347.816c5.03,4.43,2.963,9.178,2.912,13.837
	C3155.156,1357.359,3160.245,1352.476,3160.319,1347.816z"/>
<path fill="#2687BE" stroke="#2687BE" stroke-miterlimit="10" d="M4177.009,1435.618c5.671,4.313,4.946,9.019,3.277,13.783
	C4172.623,1445.211,4177.559,1440.246,4177.009,1435.618z"/>
<path fill="#2687BE" stroke="#2687BE" stroke-miterlimit="10" d="M4175.47,1422.115c3.039,4.67,2.388,9.323,1.785,13.977
	C4170.879,1431.404,4174.588,1426.766,4175.47,1422.115z"/>
<path fill="#4C6A9C" stroke="#2687BE" stroke-miterlimit="10" d="M5574.543,1998.075c1.562-8.169,2.821-16.402,4.737-24.495
	c3.517-14.865,4.351-15.136,25.345-11.421c12.711,2.248,26.207,3.71,31.451,15.606c5.195,11.777,4.721,23.145-8.151,29.937
	c-8.923,4.708-6.054,9.62-3.805,15.881c3.118,8.682,12.108,22.819,0.558,24.604c-14.857,2.295-11.461-13.186-16.374-20.806
	c-1.664-2.579-2.159-5.511-3.568-8.19c-2.121-4.034-4.372-8.452-11.333-8.205c-5.868,0.207-5.325,4.499-6.346,7.603
	c-0.651,1.974-0.642,4.128-1.333,6.088c-2.123,6.027-0.198,17.245-11.875,14.423c-11.32-2.735-3.88-12.203-3.392-18.536
	C5571.046,2012.972,5573.112,2005.563,5574.543,1998.075z"/>
<path fill="#FFFFFF" stroke="#2687BE" stroke-miterlimit="10" d="M1519.985,1028.209c8.887,28.002,8.593,56.01,8.565,83.675
	c-0.05,48.261-8.891,95.067-31.034,138.941c-27.151,53.798-73.751,94.285-137.308,123.314
	c-29.734,13.581-61.112,24.71-95.115,31.939c-8.514-7.394-7.668-16.018-8.268-24.337c-9.561-132.582-20.121-265.201-30.218-397.802
	c-0.913-11.991,0.619-23.117,15.215-28.092c52.346-17.843,106.112-32.702,168.338-22.72c47.627,7.64,88.844,38.878,100.772,75.349
	C1513.137,1015.22,1512.511,1022.513,1519.985,1028.209z"/>
<path fill="#2688BE" stroke="#2687BE" stroke-miterlimit="10" d="M1519.985,1028.209c-3.057,0.951-5.06-0.08-6.208-2.446
	c-2.625-5.406-4.852-10.913-7.828-16.225c-33.913-60.498-79.904-82.952-170.72-71.019c-28.744,3.778-56.041,11.493-82.854,19.585
	c-12.884,3.888-19.918,8.814-18.752,22.491c11.263,132.103,21.032,264.16,31.073,396.226c0.743,9.773,0.298,19.505,0.401,29.257
	c-19.141,7.811-40.319,12.125-63.334,18.733c-2.025-25.4-4.017-49.047-5.777-72.685c-10.462-140.583-20.643-281.156-31.688-421.76
	c-0.965-12.279,2.096-18.739,17.46-22.85c38.741-10.367,76.892-21.694,116.807-30.006c35.27-7.344,71.374-5.789,107.044,4
	c42.59,11.688,69.29,37.463,87.007,68.464C1507.066,975.254,1516.586,1001.385,1519.985,1028.209z"/>
<path fill="#FFFFFF" stroke="#2687BE" stroke-miterlimit="10" d="M4852.757,1165.482c10.116,35.558,13.703,71.261,18.689,106.942
	c10.388,74.317,15.421,148.483,18.465,222.542c2.469,60.117,2.268,120.001-4.273,179.382
	c-4.642,42.146-10.101,83.937-24.374,124.119c-9.402,26.47-23.183,50.99-47.191,70.903c-28.31,23.483-62.857,31.802-106.526,18.143
	c-38.917-15.298-61.211-41.656-79.331-70.165c-38.267-60.205-58.833-123.408-74.291-187.266
	c-39.987-165.189-51.569-329.737-47.248-493.872c1.762-66.983,8.076-133.187,32.534-196.185
	c7.137-18.385,17.573-35.264,32.837-50.013c35.919-34.705,97.57-35.107,143.547-1.279c55.449,40.796,78.626,92.498,98.76,145.214
	c13.376,35.023,20.701,70.683,31.862,105.946l-0.399-0.382C4849.047,1148.094,4844.658,1157.283,4852.757,1165.482z"/>
<path fill="#2687BE" stroke="#2687BE" stroke-miterlimit="10" d="M4846.221,1139.891c-8.583-7.073-7.843-15.838-10.062-23.974
	c-16.792-61.614-38.676-122.224-80.426-179.026c-12.224-16.632-27.396-31.304-45.172-45.145
	c-39.183-30.511-103.672-30.693-134.978,4.178c-21.066,23.467-32.81,50.228-40.506,78.385
	c-16.892,61.813-20.102,125.625-21.207,189.837c-1.631,94.764,3.026,189.795,14.757,285.178
	c10.875,88.43,26.812,176.663,57.55,264.137c10.473,29.8,23.632,59.072,39.694,87.806c18.605,33.28,45.317,62.248,81.678,86.248
	c-35.543-6.082-62.023-24.156-85.119-44.828c-36.698-32.845-60.469-70.776-79.08-110.525
	c-33.571-71.702-51.494-144.933-65.086-218.517c-17.617-95.382-26.364-190.645-30.882-285.854
	c-3.355-70.681-3.721-141.102,2.601-210.854c4.259-46.998,12.82-93.403,30.936-137.564c8.765-21.367,21.592-41.038,38.622-59.026
	c32.496-34.323,85.458-34.949,132.761-15.654c52.679,21.488,82.955,57.139,107.669,96.424
	c33.177,52.735,53.598,107.671,69.204,163.525C4836.171,1089.673,4844.877,1114.566,4846.221,1139.891z"/>
<path fill="#2687BE" stroke="#2687BE" stroke-miterlimit="10" d="M4852.757,1165.482c-7.314-8.133-7.846-10.125-6.937-25.973
	C4850.998,1147.94,4851.976,1156.703,4852.757,1165.482z"/>
<path fill="#FFFFFF" stroke="#2687BE" stroke-miterlimit="10" d="M409,1873.357c-30.832,17.01-65.199,29.88-97.869,44.737
	c-43.104,19.601-85.999,39.446-128.984,59.187c-6.745-4.984-4.584-10.354-3.466-15.783c20.265-98.347,47.087-195.345,64.082-294.363
	c3.53-20.563,14.391-39.244,17.831-59.841c0.894-5.355,3.058-12.355,11.03-12.349c9.917,0.008,12.17,8.202,15.173,13.922
	c19.399,36.96,37.379,74.25,55.213,111.55c20.742,43.385,42.793,86.507,61.568,130.299
	C406.762,1858.14,411.951,1865.518,409,1873.357z"/>
<path fill="#2788BE" stroke="#2687BE" stroke-miterlimit="10" d="M409,1873.357c-17.296-26.031-26.176-53.913-39.639-80.795
	c-29.672-59.25-58.023-118.797-87.143-178.172c-2.515-5.127-3.274-11.07-12.065-16.204c-6.446,24.448-13.494,47.937-18.777,71.794
	c-19.279,87.057-37.859,174.258-56.983,261.347c-3.396,15.465-8.134,30.652-12.249,45.961
	c-19.873,13.936-44.886,21.818-68.418,32.315c-3.81-15.471,103.728-504.745,116.945-532.995c9.498,7.625,11.496,16.77,15.202,24.949
	c25.253,55.746,53.489,110.859,78.752,166.62c28.924,63.841,61.035,127.067,92.237,190.455
	C420.932,1866.897,422.275,1872.469,409,1873.357z"/>
<path fill="#EBEDF5" stroke="#2687BE" stroke-miterlimit="10" d="M5592.999,1986.484c1.558-10.347,6.208-12.871,15.251-10.609
	c10.233,2.562,15.861,9.17,13.241,16.076c-2.896,7.632-11.242,7.249-19.528,5.83
	C5589.478,1995.644,5592.702,1988.815,5592.999,1986.484z"/>
</svg>
